<?xml version="1.0" encoding="UTF-8"?>
<svg xmlns="http://www.w3.org/2000/svg" xmlns:xlink="http://www.w3.org/1999/xlink" width="120pt" height="120pt" viewBox="0 0 120 120" version="1.1">
<g id="surface1">
<path style=" stroke:none;fill-rule:nonzero;fill:rgb(77.254902%,89.411765%,98.039216%);fill-opacity:1;" d="M 9.375 28.125 L 110.625 28.125 L 110.625 103.125 L 9.375 103.125 Z M 9.375 28.125 "/>
<path style=" stroke:none;fill-rule:nonzero;fill:rgb(89.019608%,94.901961%,100%);fill-opacity:1;" d="M 71.449219 103.125 L 110.625 63.949219 L 110.625 30 L 105.402344 30 L 32.277344 103.125 Z M 71.449219 103.125 "/>
<path style=" stroke:none;fill-rule:nonzero;fill:rgb(89.019608%,94.901961%,100%);fill-opacity:1;" d="M 9.910156 103.125 L 25.582031 103.125 L 98.707031 30 L 83.035156 30 Z M 9.910156 103.125 "/>
<path style=" stroke:none;fill-rule:nonzero;fill:rgb(89.019608%,94.901961%,100%);fill-opacity:1;" d="M 9.375 96.964844 L 76.339844 30 L 68.90625 30 L 9.375 89.53125 Z M 9.375 96.964844 "/>
<path style=" stroke:none;fill-rule:nonzero;fill:rgb(67.45098%,71.764706%,81.568627%);fill-opacity:1;" d="M 106.875 35.625 L 13.125 35.625 C 11.054688 35.625 9.375 33.945312 9.375 31.875 L 9.375 20.625 C 9.375 18.554688 11.054688 16.875 13.125 16.875 L 106.875 16.875 C 108.945312 16.875 110.625 18.554688 110.625 20.625 L 110.625 31.875 C 110.625 33.945312 108.945312 35.625 106.875 35.625 Z M 106.875 35.625 "/>
<path style=" stroke:none;fill-rule:nonzero;fill:rgb(100%,97.254902%,97.254902%);fill-opacity:1;" d="M 45 39.363281 L 47.320312 43.609375 L 51.566406 45.929688 L 47.320312 48.25 L 45 52.496094 L 42.679688 48.25 L 38.433594 45.929688 L 42.679688 43.609375 Z M 45 39.363281 "/>
<path style=" stroke:none;fill-rule:nonzero;fill:rgb(100%,97.254902%,97.254902%);fill-opacity:1;" d="M 98.285156 45.304688 L 99.890625 48.234375 L 102.820312 49.839844 L 99.890625 51.441406 L 98.285156 54.375 L 96.683594 51.441406 L 93.75 49.839844 L 96.683594 48.234375 Z M 98.285156 45.304688 "/>
<path style=" stroke:none;fill-rule:nonzero;fill:rgb(100%,97.254902%,97.254902%);fill-opacity:1;" d="M 64.964844 91.320312 L 66.058594 93.316406 L 68.054688 94.410156 L 66.058594 95.503906 L 64.964844 97.5 L 63.871094 95.503906 L 61.875 94.410156 L 63.871094 93.316406 Z M 64.964844 91.320312 "/>
<path style=" stroke:none;fill-rule:nonzero;fill:rgb(55.294118%,42.352941%,62.352941%);fill-opacity:1;" d="M 103.125 33.75 L 95.625 33.75 C 94.589844 33.75 93.75 34.589844 93.75 35.625 C 93.75 36.660156 94.589844 37.5 95.625 37.5 L 103.125 37.5 C 104.160156 37.5 105 36.660156 105 35.625 C 105 34.589844 104.160156 33.75 103.125 33.75 Z M 103.125 33.75 "/>
<path style=" stroke:none;fill-rule:nonzero;fill:rgb(55.294118%,42.352941%,62.352941%);fill-opacity:1;" d="M 106.875 15 L 13.125 15 C 10.023438 15 7.5 17.523438 7.5 20.625 L 7.5 99.375 C 7.5 102.476562 10.023438 105 13.125 105 L 106.875 105 C 109.976562 105 112.5 102.476562 112.5 99.375 L 112.5 20.625 C 112.5 17.523438 109.976562 15 106.875 15 Z M 108.75 99.375 C 108.75 100.410156 107.910156 101.25 106.875 101.25 L 13.125 101.25 C 12.089844 101.25 11.25 100.410156 11.25 99.375 L 11.25 37.5 L 88.125 37.5 C 89.160156 37.5 90 36.660156 90 35.625 C 90 34.589844 89.160156 33.75 88.125 33.75 L 11.25 33.75 L 11.25 20.625 C 11.25 19.589844 12.089844 18.75 13.125 18.75 L 106.875 18.75 C 107.910156 18.75 108.75 19.589844 108.75 20.625 Z M 108.75 99.375 "/>
<path style=" stroke:none;fill-rule:nonzero;fill:rgb(55.294118%,42.352941%,62.352941%);fill-opacity:1;" d="M 37.5 22.5 C 36.464844 22.5 35.625 23.339844 35.625 24.375 L 35.625 28.125 C 35.625 29.160156 36.464844 30 37.5 30 C 38.535156 30 39.375 29.160156 39.375 28.125 L 39.375 24.375 C 39.375 23.339844 38.535156 22.5 37.5 22.5 Z M 37.5 22.5 "/>
<path style=" stroke:none;fill-rule:nonzero;fill:rgb(55.294118%,42.352941%,62.352941%);fill-opacity:1;" d="M 28.125 22.5 C 27.089844 22.5 26.25 23.339844 26.25 24.375 L 26.25 28.125 C 26.25 29.160156 27.089844 30 28.125 30 C 29.160156 30 30 29.160156 30 28.125 L 30 24.375 C 30 23.339844 29.160156 22.5 28.125 22.5 Z M 28.125 22.5 "/>
<path style=" stroke:none;fill-rule:nonzero;fill:rgb(55.294118%,42.352941%,62.352941%);fill-opacity:1;" d="M 18.75 22.5 C 17.714844 22.5 16.875 23.339844 16.875 24.375 L 16.875 28.125 C 16.875 29.160156 17.714844 30 18.75 30 C 19.785156 30 20.625 29.160156 20.625 28.125 L 20.625 24.375 C 20.625 23.339844 19.785156 22.5 18.75 22.5 Z M 18.75 22.5 "/>
<path style=" stroke:none;fill-rule:nonzero;fill:rgb(55.294118%,42.352941%,62.352941%);fill-opacity:1;" d="M 65.625 22.5 C 64.589844 22.5 63.75 23.339844 63.75 24.375 L 63.75 28.125 C 63.75 29.160156 64.589844 30 65.625 30 C 66.660156 30 67.5 29.160156 67.5 28.125 L 67.5 24.375 C 67.5 23.339844 66.660156 22.5 65.625 22.5 Z M 65.625 22.5 "/>
<path style=" stroke:none;fill-rule:nonzero;fill:rgb(55.294118%,42.352941%,62.352941%);fill-opacity:1;" d="M 75 22.5 C 73.964844 22.5 73.125 23.339844 73.125 24.375 L 73.125 28.125 C 73.125 29.160156 73.964844 30 75 30 C 76.035156 30 76.875 29.160156 76.875 28.125 L 76.875 24.375 C 76.875 23.339844 76.035156 22.5 75 22.5 Z M 75 22.5 "/>
<path style=" stroke:none;fill-rule:nonzero;fill:rgb(55.294118%,42.352941%,62.352941%);fill-opacity:1;" d="M 84.375 22.5 C 83.339844 22.5 82.5 23.339844 82.5 24.375 L 82.5 28.125 C 82.5 29.160156 83.339844 30 84.375 30 C 85.410156 30 86.25 29.160156 86.25 28.125 L 86.25 24.375 C 86.25 23.339844 85.410156 22.5 84.375 22.5 Z M 84.375 22.5 "/>
<path style=" stroke:none;fill-rule:nonzero;fill:rgb(55.294118%,42.352941%,62.352941%);fill-opacity:1;" d="M 93.75 30 C 94.785156 30 95.625 29.160156 95.625 28.125 L 95.625 24.375 C 95.625 23.339844 94.785156 22.5 93.75 22.5 C 92.714844 22.5 91.875 23.339844 91.875 24.375 L 91.875 28.125 C 91.875 29.160156 92.714844 30 93.75 30 Z M 93.75 30 "/>
<path style=" stroke:none;fill-rule:nonzero;fill:rgb(55.294118%,42.352941%,62.352941%);fill-opacity:1;" d="M 103.125 22.5 C 102.089844 22.5 101.25 23.339844 101.25 24.375 L 101.25 28.125 C 101.25 29.160156 102.089844 30 103.125 30 C 104.160156 30 105 29.160156 105 28.125 L 105 24.375 C 105 23.339844 104.160156 22.5 103.125 22.5 Z M 103.125 22.5 "/>
<path style=" stroke:none;fill-rule:nonzero;fill:rgb(55.294118%,42.352941%,62.352941%);fill-opacity:1;" d="M 46.875 22.5 C 45.839844 22.5 45 23.339844 45 24.375 L 45 28.125 C 45 29.160156 45.839844 30 46.875 30 C 47.910156 30 48.75 29.160156 48.75 28.125 L 48.75 24.375 C 48.75 23.339844 47.910156 22.5 46.875 22.5 Z M 46.875 22.5 "/>
<path style=" stroke:none;fill-rule:nonzero;fill:rgb(55.294118%,42.352941%,62.352941%);fill-opacity:1;" d="M 56.25 22.5 C 55.214844 22.5 54.375 23.339844 54.375 24.375 L 54.375 28.125 C 54.375 29.160156 55.214844 30 56.25 30 C 57.285156 30 58.125 29.160156 58.125 28.125 L 58.125 24.375 C 58.125 23.339844 57.285156 22.5 56.25 22.5 Z M 56.25 22.5 "/>
<path style=" stroke:none;fill-rule:nonzero;fill:rgb(55.294118%,42.352941%,62.352941%);fill-opacity:1;" d="M 91.875 52.5 C 90.839844 52.5 90 53.339844 90 54.375 L 90 67.5 L 78.75 67.5 L 78.75 54.375 C 78.75 53.339844 77.910156 52.5 76.875 52.5 C 75.839844 52.5 75 53.339844 75 54.375 L 75 84.375 C 75 85.410156 75.839844 86.25 76.875 86.25 C 77.910156 86.25 78.75 85.410156 78.75 84.375 L 78.75 71.25 L 90 71.25 L 90 84.375 C 90 85.410156 90.839844 86.25 91.875 86.25 C 92.910156 86.25 93.75 85.410156 93.75 84.375 L 93.75 54.375 C 93.75 53.339844 92.910156 52.5 91.875 52.5 Z M 91.875 52.5 "/>
<path style=" stroke:none;fill-rule:nonzero;fill:rgb(55.294118%,42.352941%,62.352941%);fill-opacity:1;" d="M 33.75 52.5 L 30 52.5 C 25.863281 52.5 22.5 55.863281 22.5 60 L 22.5 63.75 C 22.5 67.886719 25.863281 71.25 30 71.25 L 33.75 71.25 C 35.816406 71.25 37.5 72.933594 37.5 75 L 37.5 78.75 C 37.5 80.816406 35.816406 82.5 33.75 82.5 L 30 82.5 C 27.933594 82.5 26.25 80.816406 26.25 78.75 L 26.25 76.875 C 26.25 75.839844 25.410156 75 24.375 75 C 23.339844 75 22.5 75.839844 22.5 76.875 L 22.5 78.75 C 22.5 82.886719 25.863281 86.25 30 86.25 L 33.75 86.25 C 37.886719 86.25 41.25 82.886719 41.25 78.75 L 41.25 75 C 41.25 70.863281 37.886719 67.5 33.75 67.5 L 30 67.5 C 27.933594 67.5 26.25 65.816406 26.25 63.75 L 26.25 60 C 26.25 57.933594 27.933594 56.25 30 56.25 L 33.75 56.25 C 35.816406 56.25 37.5 57.933594 37.5 60 L 37.5 61.875 C 37.5 62.910156 38.339844 63.75 39.375 63.75 C 40.410156 63.75 41.25 62.910156 41.25 61.875 L 41.25 60 C 41.25 55.863281 37.886719 52.5 33.75 52.5 Z M 33.75 52.5 "/>
<path style=" stroke:none;fill-rule:nonzero;fill:rgb(55.294118%,42.352941%,62.352941%);fill-opacity:1;" d="M 60 52.5 L 56.25 52.5 C 52.113281 52.5 48.75 55.863281 48.75 60 L 48.75 63.75 C 48.75 67.886719 52.113281 71.25 56.25 71.25 L 60 71.25 C 62.066406 71.25 63.75 72.933594 63.75 75 L 63.75 78.75 C 63.75 80.816406 62.066406 82.5 60 82.5 L 56.25 82.5 C 54.183594 82.5 52.5 80.816406 52.5 78.75 L 52.5 76.875 C 52.5 75.839844 51.660156 75 50.625 75 C 49.589844 75 48.75 75.839844 48.75 76.875 L 48.75 78.75 C 48.75 82.886719 52.113281 86.25 56.25 86.25 L 60 86.25 C 64.136719 86.25 67.5 82.886719 67.5 78.75 L 67.5 75 C 67.5 70.863281 64.136719 67.5 60 67.5 L 56.25 67.5 C 54.183594 67.5 52.5 65.816406 52.5 63.75 L 52.5 60 C 52.5 57.933594 54.183594 56.25 56.25 56.25 L 60 56.25 C 62.066406 56.25 63.75 57.933594 63.75 60 L 63.75 61.875 C 63.75 62.910156 64.589844 63.75 65.625 63.75 C 66.660156 63.75 67.5 62.910156 67.5 61.875 L 67.5 60 C 67.5 55.863281 64.136719 52.5 60 52.5 Z M 60 52.5 "/>
</g>
</svg>
