<?xml version="1.0" encoding="UTF-8"?>
<svg xmlns="http://www.w3.org/2000/svg" xmlns:xlink="http://www.w3.org/1999/xlink" width="38pt" height="38pt" viewBox="0 0 38 38" version="1.1">
<g id="surface1">
<path style=" stroke:none;fill-rule:nonzero;fill:rgb(77.254902%,89.411765%,98.039216%);fill-opacity:1;" d="M 2.96875 8.90625 L 35.03125 8.90625 L 35.03125 32.65625 L 2.96875 32.65625 Z M 2.96875 8.90625 "/>
<path style=" stroke:none;fill-rule:nonzero;fill:rgb(89.019608%,94.901961%,100%);fill-opacity:1;" d="M 22.625 32.65625 L 35.03125 20.25 L 35.03125 9.5 L 33.378906 9.5 L 10.222656 32.65625 Z M 22.625 32.65625 "/>
<path style=" stroke:none;fill-rule:nonzero;fill:rgb(89.019608%,94.901961%,100%);fill-opacity:1;" d="M 3.136719 32.65625 L 8.101562 32.65625 L 31.257812 9.5 L 26.292969 9.5 Z M 3.136719 32.65625 "/>
<path style=" stroke:none;fill-rule:nonzero;fill:rgb(89.019608%,94.901961%,100%);fill-opacity:1;" d="M 2.96875 30.707031 L 24.175781 9.5 L 21.820312 9.5 L 2.96875 28.351562 Z M 2.96875 30.707031 "/>
<path style=" stroke:none;fill-rule:nonzero;fill:rgb(67.45098%,71.764706%,81.568627%);fill-opacity:1;" d="M 33.84375 11.28125 L 4.15625 11.28125 C 3.5 11.28125 2.96875 10.75 2.96875 10.09375 L 2.96875 6.53125 C 2.96875 5.875 3.5 5.34375 4.15625 5.34375 L 33.84375 5.34375 C 34.5 5.34375 35.03125 5.875 35.03125 6.53125 L 35.03125 10.09375 C 35.03125 10.75 34.5 11.28125 33.84375 11.28125 Z M 33.84375 11.28125 "/>
<path style=" stroke:none;fill-rule:nonzero;fill:rgb(100%,97.254902%,97.254902%);fill-opacity:1;" d="M 14.25 12.464844 L 14.984375 13.808594 L 16.328125 14.542969 L 14.984375 15.277344 L 14.25 16.625 L 13.515625 15.277344 L 12.171875 14.542969 L 13.515625 13.808594 Z M 14.25 12.464844 "/>
<path style=" stroke:none;fill-rule:nonzero;fill:rgb(100%,97.254902%,97.254902%);fill-opacity:1;" d="M 31.125 14.347656 L 31.632812 15.273438 L 32.558594 15.78125 L 31.632812 16.289062 L 31.125 17.21875 L 30.617188 16.289062 L 29.6875 15.78125 L 30.617188 15.273438 Z M 31.125 14.347656 "/>
<path style=" stroke:none;fill-rule:nonzero;fill:rgb(100%,97.254902%,97.254902%);fill-opacity:1;" d="M 20.570312 28.917969 L 20.917969 29.550781 L 21.550781 29.898438 L 20.917969 30.242188 L 20.570312 30.875 L 20.226562 30.242188 L 19.59375 29.898438 L 20.226562 29.550781 Z M 20.570312 28.917969 "/>
<path style=" stroke:none;fill-rule:nonzero;fill:rgb(55.294118%,42.352941%,62.352941%);fill-opacity:1;" d="M 32.65625 10.6875 L 30.28125 10.6875 C 29.953125 10.6875 29.6875 10.953125 29.6875 11.28125 C 29.6875 11.609375 29.953125 11.875 30.28125 11.875 L 32.65625 11.875 C 32.984375 11.875 33.25 11.609375 33.25 11.28125 C 33.25 10.953125 32.984375 10.6875 32.65625 10.6875 Z M 32.65625 10.6875 "/>
<path style=" stroke:none;fill-rule:nonzero;fill:rgb(55.294118%,42.352941%,62.352941%);fill-opacity:1;" d="M 33.84375 4.75 L 4.15625 4.75 C 3.175781 4.75 2.375 5.550781 2.375 6.53125 L 2.375 31.46875 C 2.375 32.449219 3.175781 33.25 4.15625 33.25 L 33.84375 33.25 C 34.824219 33.25 35.625 32.449219 35.625 31.46875 L 35.625 6.53125 C 35.625 5.550781 34.824219 4.75 33.84375 4.75 Z M 34.4375 31.46875 C 34.4375 31.796875 34.171875 32.0625 33.84375 32.0625 L 4.15625 32.0625 C 3.828125 32.0625 3.5625 31.796875 3.5625 31.46875 L 3.5625 11.875 L 27.90625 11.875 C 28.234375 11.875 28.5 11.609375 28.5 11.28125 C 28.5 10.953125 28.234375 10.6875 27.90625 10.6875 L 3.5625 10.6875 L 3.5625 6.53125 C 3.5625 6.203125 3.828125 5.9375 4.15625 5.9375 L 33.84375 5.9375 C 34.171875 5.9375 34.4375 6.203125 34.4375 6.53125 Z M 34.4375 31.46875 "/>
<path style=" stroke:none;fill-rule:nonzero;fill:rgb(55.294118%,42.352941%,62.352941%);fill-opacity:1;" d="M 11.875 7.125 C 11.546875 7.125 11.28125 7.390625 11.28125 7.71875 L 11.28125 8.90625 C 11.28125 9.234375 11.546875 9.5 11.875 9.5 C 12.203125 9.5 12.46875 9.234375 12.46875 8.90625 L 12.46875 7.71875 C 12.46875 7.390625 12.203125 7.125 11.875 7.125 Z M 11.875 7.125 "/>
<path style=" stroke:none;fill-rule:nonzero;fill:rgb(55.294118%,42.352941%,62.352941%);fill-opacity:1;" d="M 8.90625 7.125 C 8.578125 7.125 8.3125 7.390625 8.3125 7.71875 L 8.3125 8.90625 C 8.3125 9.234375 8.578125 9.5 8.90625 9.5 C 9.234375 9.5 9.5 9.234375 9.5 8.90625 L 9.5 7.71875 C 9.5 7.390625 9.234375 7.125 8.90625 7.125 Z M 8.90625 7.125 "/>
<path style=" stroke:none;fill-rule:nonzero;fill:rgb(55.294118%,42.352941%,62.352941%);fill-opacity:1;" d="M 5.9375 7.125 C 5.609375 7.125 5.34375 7.390625 5.34375 7.71875 L 5.34375 8.90625 C 5.34375 9.234375 5.609375 9.5 5.9375 9.5 C 6.265625 9.5 6.53125 9.234375 6.53125 8.90625 L 6.53125 7.71875 C 6.53125 7.390625 6.265625 7.125 5.9375 7.125 Z M 5.9375 7.125 "/>
<path style=" stroke:none;fill-rule:nonzero;fill:rgb(55.294118%,42.352941%,62.352941%);fill-opacity:1;" d="M 20.78125 7.125 C 20.453125 7.125 20.1875 7.390625 20.1875 7.71875 L 20.1875 8.90625 C 20.1875 9.234375 20.453125 9.5 20.78125 9.5 C 21.109375 9.5 21.375 9.234375 21.375 8.90625 L 21.375 7.71875 C 21.375 7.390625 21.109375 7.125 20.78125 7.125 Z M 20.78125 7.125 "/>
<path style=" stroke:none;fill-rule:nonzero;fill:rgb(55.294118%,42.352941%,62.352941%);fill-opacity:1;" d="M 23.75 7.125 C 23.421875 7.125 23.15625 7.390625 23.15625 7.71875 L 23.15625 8.90625 C 23.15625 9.234375 23.421875 9.5 23.75 9.5 C 24.078125 9.5 24.34375 9.234375 24.34375 8.90625 L 24.34375 7.71875 C 24.34375 7.390625 24.078125 7.125 23.75 7.125 Z M 23.75 7.125 "/>
<path style=" stroke:none;fill-rule:nonzero;fill:rgb(55.294118%,42.352941%,62.352941%);fill-opacity:1;" d="M 26.71875 7.125 C 26.390625 7.125 26.125 7.390625 26.125 7.71875 L 26.125 8.90625 C 26.125 9.234375 26.390625 9.5 26.71875 9.5 C 27.046875 9.5 27.3125 9.234375 27.3125 8.90625 L 27.3125 7.71875 C 27.3125 7.390625 27.046875 7.125 26.71875 7.125 Z M 26.71875 7.125 "/>
<path style=" stroke:none;fill-rule:nonzero;fill:rgb(55.294118%,42.352941%,62.352941%);fill-opacity:1;" d="M 29.6875 9.5 C 30.015625 9.5 30.28125 9.234375 30.28125 8.90625 L 30.28125 7.71875 C 30.28125 7.390625 30.015625 7.125 29.6875 7.125 C 29.359375 7.125 29.09375 7.390625 29.09375 7.71875 L 29.09375 8.90625 C 29.09375 9.234375 29.359375 9.5 29.6875 9.5 Z M 29.6875 9.5 "/>
<path style=" stroke:none;fill-rule:nonzero;fill:rgb(55.294118%,42.352941%,62.352941%);fill-opacity:1;" d="M 32.65625 7.125 C 32.328125 7.125 32.0625 7.390625 32.0625 7.71875 L 32.0625 8.90625 C 32.0625 9.234375 32.328125 9.5 32.65625 9.5 C 32.984375 9.5 33.25 9.234375 33.25 8.90625 L 33.25 7.71875 C 33.25 7.390625 32.984375 7.125 32.65625 7.125 Z M 32.65625 7.125 "/>
<path style=" stroke:none;fill-rule:nonzero;fill:rgb(55.294118%,42.352941%,62.352941%);fill-opacity:1;" d="M 14.84375 7.125 C 14.515625 7.125 14.25 7.390625 14.25 7.71875 L 14.25 8.90625 C 14.25 9.234375 14.515625 9.5 14.84375 9.5 C 15.171875 9.5 15.4375 9.234375 15.4375 8.90625 L 15.4375 7.71875 C 15.4375 7.390625 15.171875 7.125 14.84375 7.125 Z M 14.84375 7.125 "/>
<path style=" stroke:none;fill-rule:nonzero;fill:rgb(55.294118%,42.352941%,62.352941%);fill-opacity:1;" d="M 17.8125 7.125 C 17.484375 7.125 17.21875 7.390625 17.21875 7.71875 L 17.21875 8.90625 C 17.21875 9.234375 17.484375 9.5 17.8125 9.5 C 18.140625 9.5 18.40625 9.234375 18.40625 8.90625 L 18.40625 7.71875 C 18.40625 7.390625 18.140625 7.125 17.8125 7.125 Z M 17.8125 7.125 "/>
<path style=" stroke:none;fill-rule:nonzero;fill:rgb(55.294118%,42.352941%,62.352941%);fill-opacity:1;" d="M 29.09375 16.625 C 28.765625 16.625 28.5 16.890625 28.5 17.21875 L 28.5 21.375 L 24.9375 21.375 L 24.9375 17.21875 C 24.9375 16.890625 24.671875 16.625 24.34375 16.625 C 24.015625 16.625 23.75 16.890625 23.75 17.21875 L 23.75 26.71875 C 23.75 27.046875 24.015625 27.3125 24.34375 27.3125 C 24.671875 27.3125 24.9375 27.046875 24.9375 26.71875 L 24.9375 22.5625 L 28.5 22.5625 L 28.5 26.71875 C 28.5 27.046875 28.765625 27.3125 29.09375 27.3125 C 29.421875 27.3125 29.6875 27.046875 29.6875 26.71875 L 29.6875 17.21875 C 29.6875 16.890625 29.421875 16.625 29.09375 16.625 Z M 29.09375 16.625 "/>
<path style=" stroke:none;fill-rule:nonzero;fill:rgb(55.294118%,42.352941%,62.352941%);fill-opacity:1;" d="M 10.6875 16.625 L 9.5 16.625 C 8.191406 16.625 7.125 17.691406 7.125 19 L 7.125 20.1875 C 7.125 21.496094 8.191406 22.5625 9.5 22.5625 L 10.6875 22.5625 C 11.34375 22.5625 11.875 23.09375 11.875 23.75 L 11.875 24.9375 C 11.875 25.59375 11.34375 26.125 10.6875 26.125 L 9.5 26.125 C 8.84375 26.125 8.3125 25.59375 8.3125 24.9375 L 8.3125 24.34375 C 8.3125 24.015625 8.046875 23.75 7.71875 23.75 C 7.390625 23.75 7.125 24.015625 7.125 24.34375 L 7.125 24.9375 C 7.125 26.246094 8.191406 27.3125 9.5 27.3125 L 10.6875 27.3125 C 11.996094 27.3125 13.0625 26.246094 13.0625 24.9375 L 13.0625 23.75 C 13.0625 22.441406 11.996094 21.375 10.6875 21.375 L 9.5 21.375 C 8.84375 21.375 8.3125 20.84375 8.3125 20.1875 L 8.3125 19 C 8.3125 18.34375 8.84375 17.8125 9.5 17.8125 L 10.6875 17.8125 C 11.34375 17.8125 11.875 18.34375 11.875 19 L 11.875 19.59375 C 11.875 19.921875 12.140625 20.1875 12.46875 20.1875 C 12.796875 20.1875 13.0625 19.921875 13.0625 19.59375 L 13.0625 19 C 13.0625 17.691406 11.996094 16.625 10.6875 16.625 Z M 10.6875 16.625 "/>
<path style=" stroke:none;fill-rule:nonzero;fill:rgb(55.294118%,42.352941%,62.352941%);fill-opacity:1;" d="M 19 16.625 L 17.8125 16.625 C 16.503906 16.625 15.4375 17.691406 15.4375 19 L 15.4375 20.1875 C 15.4375 21.496094 16.503906 22.5625 17.8125 22.5625 L 19 22.5625 C 19.65625 22.5625 20.1875 23.09375 20.1875 23.75 L 20.1875 24.9375 C 20.1875 25.59375 19.65625 26.125 19 26.125 L 17.8125 26.125 C 17.15625 26.125 16.625 25.59375 16.625 24.9375 L 16.625 24.34375 C 16.625 24.015625 16.359375 23.75 16.03125 23.75 C 15.703125 23.75 15.4375 24.015625 15.4375 24.34375 L 15.4375 24.9375 C 15.4375 26.246094 16.503906 27.3125 17.8125 27.3125 L 19 27.3125 C 20.308594 27.3125 21.375 26.246094 21.375 24.9375 L 21.375 23.75 C 21.375 22.441406 20.308594 21.375 19 21.375 L 17.8125 21.375 C 17.15625 21.375 16.625 20.84375 16.625 20.1875 L 16.625 19 C 16.625 18.34375 17.15625 17.8125 17.8125 17.8125 L 19 17.8125 C 19.65625 17.8125 20.1875 18.34375 20.1875 19 L 20.1875 19.59375 C 20.1875 19.921875 20.453125 20.1875 20.78125 20.1875 C 21.109375 20.1875 21.375 19.921875 21.375 19.59375 L 21.375 19 C 21.375 17.691406 20.308594 16.625 19 16.625 Z M 19 16.625 "/>
</g>
</svg>
