<?xml version="1.0" encoding="UTF-8"?>
<svg xmlns="http://www.w3.org/2000/svg" xmlns:xlink="http://www.w3.org/1999/xlink" width="16pt" height="16pt" viewBox="0 0 16 16" version="1.1">
<g id="surface1">
<path style=" stroke:none;fill-rule:nonzero;fill:rgb(77.254902%,89.411765%,98.039216%);fill-opacity:1;" d="M 1.25 3.75 L 14.75 3.75 L 14.75 13.75 L 1.25 13.75 Z M 1.25 3.75 "/>
<path style=" stroke:none;fill-rule:nonzero;fill:rgb(89.019608%,94.901961%,100%);fill-opacity:1;" d="M 9.527344 13.75 L 14.75 8.527344 L 14.75 4 L 14.054688 4 L 4.304688 13.75 Z M 9.527344 13.75 "/>
<path style=" stroke:none;fill-rule:nonzero;fill:rgb(89.019608%,94.901961%,100%);fill-opacity:1;" d="M 1.320312 13.75 L 3.410156 13.75 L 13.160156 4 L 11.070312 4 Z M 1.320312 13.75 "/>
<path style=" stroke:none;fill-rule:nonzero;fill:rgb(89.019608%,94.901961%,100%);fill-opacity:1;" d="M 1.25 12.929688 L 10.179688 4 L 9.1875 4 L 1.25 11.9375 Z M 1.25 12.929688 "/>
<path style=" stroke:none;fill-rule:nonzero;fill:rgb(67.45098%,71.764706%,81.568627%);fill-opacity:1;" d="M 14.25 4.75 L 1.75 4.75 C 1.472656 4.75 1.25 4.527344 1.25 4.25 L 1.25 2.75 C 1.25 2.472656 1.472656 2.25 1.75 2.25 L 14.25 2.25 C 14.527344 2.25 14.75 2.472656 14.75 2.75 L 14.75 4.25 C 14.75 4.527344 14.527344 4.75 14.25 4.75 Z M 14.25 4.75 "/>
<path style=" stroke:none;fill-rule:nonzero;fill:rgb(100%,97.254902%,97.254902%);fill-opacity:1;" d="M 6 5.25 L 6.308594 5.816406 L 6.875 6.125 L 6.308594 6.433594 L 6 7 L 5.691406 6.433594 L 5.125 6.125 L 5.691406 5.816406 Z M 6 5.25 "/>
<path style=" stroke:none;fill-rule:nonzero;fill:rgb(100%,97.254902%,97.254902%);fill-opacity:1;" d="M 13.105469 6.039062 L 13.320312 6.429688 L 13.710938 6.644531 L 13.320312 6.859375 L 13.105469 7.25 L 12.890625 6.859375 L 12.5 6.644531 L 12.890625 6.429688 Z M 13.105469 6.039062 "/>
<path style=" stroke:none;fill-rule:nonzero;fill:rgb(100%,97.254902%,97.254902%);fill-opacity:1;" d="M 8.660156 12.175781 L 8.808594 12.441406 L 9.074219 12.589844 L 8.808594 12.734375 L 8.660156 13 L 8.515625 12.734375 L 8.25 12.589844 L 8.515625 12.441406 Z M 8.660156 12.175781 "/>
<path style=" stroke:none;fill-rule:nonzero;fill:rgb(55.294118%,42.352941%,62.352941%);fill-opacity:1;" d="M 13.75 4.5 L 12.75 4.5 C 12.613281 4.5 12.5 4.613281 12.5 4.75 C 12.5 4.886719 12.613281 5 12.75 5 L 13.75 5 C 13.886719 5 14 4.886719 14 4.75 C 14 4.613281 13.886719 4.5 13.75 4.5 Z M 13.75 4.5 "/>
<path style=" stroke:none;fill-rule:nonzero;fill:rgb(55.294118%,42.352941%,62.352941%);fill-opacity:1;" d="M 14.25 2 L 1.75 2 C 1.335938 2 1 2.335938 1 2.75 L 1 13.25 C 1 13.664062 1.335938 14 1.75 14 L 14.25 14 C 14.664062 14 15 13.664062 15 13.25 L 15 2.75 C 15 2.335938 14.664062 2 14.25 2 Z M 14.5 13.25 C 14.5 13.386719 14.386719 13.5 14.25 13.5 L 1.75 13.5 C 1.613281 13.5 1.5 13.386719 1.5 13.25 L 1.5 5 L 11.75 5 C 11.886719 5 12 4.886719 12 4.75 C 12 4.613281 11.886719 4.5 11.75 4.5 L 1.5 4.5 L 1.5 2.75 C 1.5 2.613281 1.613281 2.5 1.75 2.5 L 14.25 2.5 C 14.386719 2.5 14.5 2.613281 14.5 2.75 Z M 14.5 13.25 "/>
<path style=" stroke:none;fill-rule:nonzero;fill:rgb(55.294118%,42.352941%,62.352941%);fill-opacity:1;" d="M 5 3 C 4.863281 3 4.75 3.113281 4.75 3.25 L 4.75 3.75 C 4.75 3.886719 4.863281 4 5 4 C 5.136719 4 5.25 3.886719 5.25 3.75 L 5.25 3.25 C 5.25 3.113281 5.136719 3 5 3 Z M 5 3 "/>
<path style=" stroke:none;fill-rule:nonzero;fill:rgb(55.294118%,42.352941%,62.352941%);fill-opacity:1;" d="M 3.75 3 C 3.613281 3 3.5 3.113281 3.5 3.25 L 3.5 3.75 C 3.5 3.886719 3.613281 4 3.75 4 C 3.886719 4 4 3.886719 4 3.75 L 4 3.25 C 4 3.113281 3.886719 3 3.75 3 Z M 3.75 3 "/>
<path style=" stroke:none;fill-rule:nonzero;fill:rgb(55.294118%,42.352941%,62.352941%);fill-opacity:1;" d="M 2.5 3 C 2.363281 3 2.25 3.113281 2.25 3.25 L 2.25 3.75 C 2.25 3.886719 2.363281 4 2.5 4 C 2.636719 4 2.75 3.886719 2.75 3.75 L 2.75 3.25 C 2.75 3.113281 2.636719 3 2.5 3 Z M 2.5 3 "/>
<path style=" stroke:none;fill-rule:nonzero;fill:rgb(55.294118%,42.352941%,62.352941%);fill-opacity:1;" d="M 8.75 3 C 8.613281 3 8.5 3.113281 8.5 3.25 L 8.5 3.75 C 8.5 3.886719 8.613281 4 8.75 4 C 8.886719 4 9 3.886719 9 3.75 L 9 3.25 C 9 3.113281 8.886719 3 8.75 3 Z M 8.75 3 "/>
<path style=" stroke:none;fill-rule:nonzero;fill:rgb(55.294118%,42.352941%,62.352941%);fill-opacity:1;" d="M 10 3 C 9.863281 3 9.75 3.113281 9.75 3.25 L 9.75 3.75 C 9.75 3.886719 9.863281 4 10 4 C 10.136719 4 10.25 3.886719 10.25 3.75 L 10.25 3.25 C 10.25 3.113281 10.136719 3 10 3 Z M 10 3 "/>
<path style=" stroke:none;fill-rule:nonzero;fill:rgb(55.294118%,42.352941%,62.352941%);fill-opacity:1;" d="M 11.25 3 C 11.113281 3 11 3.113281 11 3.25 L 11 3.75 C 11 3.886719 11.113281 4 11.25 4 C 11.386719 4 11.5 3.886719 11.5 3.75 L 11.5 3.25 C 11.5 3.113281 11.386719 3 11.25 3 Z M 11.25 3 "/>
<path style=" stroke:none;fill-rule:nonzero;fill:rgb(55.294118%,42.352941%,62.352941%);fill-opacity:1;" d="M 12.5 4 C 12.636719 4 12.75 3.886719 12.75 3.75 L 12.75 3.25 C 12.75 3.113281 12.636719 3 12.5 3 C 12.363281 3 12.25 3.113281 12.25 3.25 L 12.25 3.75 C 12.25 3.886719 12.363281 4 12.5 4 Z M 12.5 4 "/>
<path style=" stroke:none;fill-rule:nonzero;fill:rgb(55.294118%,42.352941%,62.352941%);fill-opacity:1;" d="M 13.75 3 C 13.613281 3 13.5 3.113281 13.5 3.25 L 13.5 3.75 C 13.5 3.886719 13.613281 4 13.75 4 C 13.886719 4 14 3.886719 14 3.75 L 14 3.25 C 14 3.113281 13.886719 3 13.75 3 Z M 13.75 3 "/>
<path style=" stroke:none;fill-rule:nonzero;fill:rgb(55.294118%,42.352941%,62.352941%);fill-opacity:1;" d="M 6.25 3 C 6.113281 3 6 3.113281 6 3.25 L 6 3.75 C 6 3.886719 6.113281 4 6.25 4 C 6.386719 4 6.5 3.886719 6.5 3.75 L 6.5 3.25 C 6.5 3.113281 6.386719 3 6.25 3 Z M 6.25 3 "/>
<path style=" stroke:none;fill-rule:nonzero;fill:rgb(55.294118%,42.352941%,62.352941%);fill-opacity:1;" d="M 7.5 3 C 7.363281 3 7.25 3.113281 7.25 3.25 L 7.25 3.75 C 7.25 3.886719 7.363281 4 7.5 4 C 7.636719 4 7.75 3.886719 7.75 3.75 L 7.75 3.25 C 7.75 3.113281 7.636719 3 7.5 3 Z M 7.5 3 "/>
<path style=" stroke:none;fill-rule:nonzero;fill:rgb(55.294118%,42.352941%,62.352941%);fill-opacity:1;" d="M 12.25 7 C 12.113281 7 12 7.113281 12 7.25 L 12 9 L 10.5 9 L 10.5 7.25 C 10.5 7.113281 10.386719 7 10.25 7 C 10.113281 7 10 7.113281 10 7.25 L 10 11.25 C 10 11.386719 10.113281 11.5 10.25 11.5 C 10.386719 11.5 10.5 11.386719 10.5 11.25 L 10.5 9.5 L 12 9.5 L 12 11.25 C 12 11.386719 12.113281 11.5 12.25 11.5 C 12.386719 11.5 12.5 11.386719 12.5 11.25 L 12.5 7.25 C 12.5 7.113281 12.386719 7 12.25 7 Z M 12.25 7 "/>
<path style=" stroke:none;fill-rule:nonzero;fill:rgb(55.294118%,42.352941%,62.352941%);fill-opacity:1;" d="M 4.5 7 L 4 7 C 3.449219 7 3 7.449219 3 8 L 3 8.5 C 3 9.050781 3.449219 9.5 4 9.5 L 4.5 9.5 C 4.777344 9.5 5 9.722656 5 10 L 5 10.5 C 5 10.777344 4.777344 11 4.5 11 L 4 11 C 3.722656 11 3.5 10.777344 3.5 10.5 L 3.5 10.25 C 3.5 10.113281 3.386719 10 3.25 10 C 3.113281 10 3 10.113281 3 10.25 L 3 10.5 C 3 11.050781 3.449219 11.5 4 11.5 L 4.5 11.5 C 5.050781 11.5 5.5 11.050781 5.5 10.5 L 5.5 10 C 5.5 9.449219 5.050781 9 4.5 9 L 4 9 C 3.722656 9 3.5 8.777344 3.5 8.5 L 3.5 8 C 3.5 7.722656 3.722656 7.5 4 7.5 L 4.5 7.5 C 4.777344 7.5 5 7.722656 5 8 L 5 8.25 C 5 8.386719 5.113281 8.5 5.25 8.5 C 5.386719 8.5 5.5 8.386719 5.5 8.25 L 5.5 8 C 5.5 7.449219 5.050781 7 4.5 7 Z M 4.5 7 "/>
<path style=" stroke:none;fill-rule:nonzero;fill:rgb(55.294118%,42.352941%,62.352941%);fill-opacity:1;" d="M 8 7 L 7.5 7 C 6.949219 7 6.5 7.449219 6.5 8 L 6.5 8.5 C 6.5 9.050781 6.949219 9.5 7.5 9.5 L 8 9.5 C 8.277344 9.5 8.5 9.722656 8.5 10 L 8.5 10.5 C 8.5 10.777344 8.277344 11 8 11 L 7.5 11 C 7.222656 11 7 10.777344 7 10.5 L 7 10.25 C 7 10.113281 6.886719 10 6.75 10 C 6.613281 10 6.5 10.113281 6.5 10.25 L 6.5 10.5 C 6.5 11.050781 6.949219 11.5 7.5 11.5 L 8 11.5 C 8.550781 11.5 9 11.050781 9 10.5 L 9 10 C 9 9.449219 8.550781 9 8 9 L 7.5 9 C 7.222656 9 7 8.777344 7 8.5 L 7 8 C 7 7.722656 7.222656 7.5 7.5 7.5 L 8 7.5 C 8.277344 7.5 8.5 7.722656 8.5 8 L 8.5 8.25 C 8.5 8.386719 8.613281 8.5 8.75 8.5 C 8.886719 8.5 9 8.386719 9 8.25 L 9 8 C 9 7.449219 8.550781 7 8 7 Z M 8 7 "/>
</g>
</svg>
