<?xml version="1.0" encoding="UTF-8"?>
<svg xmlns="http://www.w3.org/2000/svg" xmlns:xlink="http://www.w3.org/1999/xlink" width="24pt" height="23pt" viewBox="0 0 24 23" version="1.1">
<g id="surface1">
<path style=" stroke:none;fill-rule:nonzero;fill:rgb(77.254902%,89.411765%,98.039216%);fill-opacity:1;" d="M 1.851562 5.320312 L 21.835938 5.320312 L 21.835938 19.507812 L 1.851562 19.507812 Z M 1.851562 5.320312 "/>
<path style=" stroke:none;fill-rule:nonzero;fill:rgb(89.019608%,94.901961%,100%);fill-opacity:1;" d="M 14.101562 19.507812 L 21.835938 12.097656 L 21.835938 5.675781 L 20.804688 5.675781 L 6.371094 19.507812 Z M 14.101562 19.507812 "/>
<path style=" stroke:none;fill-rule:nonzero;fill:rgb(89.019608%,94.901961%,100%);fill-opacity:1;" d="M 1.953125 19.507812 L 5.050781 19.507812 L 19.484375 5.675781 L 16.390625 5.675781 Z M 1.953125 19.507812 "/>
<path style=" stroke:none;fill-rule:nonzero;fill:rgb(89.019608%,94.901961%,100%);fill-opacity:1;" d="M 1.851562 18.34375 L 15.070312 5.675781 L 13.601562 5.675781 L 1.851562 16.9375 Z M 1.851562 18.34375 "/>
<path style=" stroke:none;fill-rule:nonzero;fill:rgb(67.45098%,71.764706%,81.568627%);fill-opacity:1;" d="M 21.097656 6.738281 L 2.589844 6.738281 C 2.183594 6.738281 1.851562 6.421875 1.851562 6.03125 L 1.851562 3.902344 C 1.851562 3.511719 2.183594 3.191406 2.589844 3.191406 L 21.097656 3.191406 C 21.503906 3.191406 21.835938 3.511719 21.835938 3.902344 L 21.835938 6.03125 C 21.835938 6.421875 21.503906 6.738281 21.097656 6.738281 Z M 21.097656 6.738281 "/>
<path style=" stroke:none;fill-rule:nonzero;fill:rgb(100%,97.254902%,97.254902%);fill-opacity:1;" d="M 8.882812 7.445312 L 9.339844 8.25 L 10.179688 8.6875 L 9.339844 9.125 L 8.882812 9.929688 L 8.425781 9.125 L 7.585938 8.6875 L 8.425781 8.25 Z M 8.882812 7.445312 "/>
<path style=" stroke:none;fill-rule:nonzero;fill:rgb(100%,97.254902%,97.254902%);fill-opacity:1;" d="M 19.402344 8.570312 L 19.71875 9.125 L 20.292969 9.425781 L 19.71875 9.730469 L 19.402344 10.285156 L 19.085938 9.730469 L 18.503906 9.425781 L 19.085938 9.125 Z M 19.402344 8.570312 "/>
<path style=" stroke:none;fill-rule:nonzero;fill:rgb(100%,97.254902%,97.254902%);fill-opacity:1;" d="M 12.820312 17.273438 L 13.039062 17.652344 L 13.433594 17.859375 L 13.039062 18.066406 L 12.820312 18.445312 L 12.609375 18.066406 L 12.214844 17.859375 L 12.609375 17.652344 Z M 12.820312 17.273438 "/>
<path style=" stroke:none;fill-rule:nonzero;fill:rgb(55.294118%,42.352941%,62.352941%);fill-opacity:1;" d="M 20.355469 6.382812 L 18.875 6.382812 C 18.671875 6.382812 18.503906 6.542969 18.503906 6.738281 C 18.503906 6.933594 18.671875 7.09375 18.875 7.09375 L 20.355469 7.09375 C 20.558594 7.09375 20.726562 6.933594 20.726562 6.738281 C 20.726562 6.542969 20.558594 6.382812 20.355469 6.382812 Z M 20.355469 6.382812 "/>
<path style=" stroke:none;fill-rule:nonzero;fill:rgb(55.294118%,42.352941%,62.352941%);fill-opacity:1;" d="M 21.097656 2.835938 L 2.589844 2.835938 C 1.980469 2.835938 1.480469 3.316406 1.480469 3.902344 L 1.480469 18.796875 C 1.480469 19.382812 1.980469 19.863281 2.589844 19.863281 L 21.097656 19.863281 C 21.707031 19.863281 22.207031 19.382812 22.207031 18.796875 L 22.207031 3.902344 C 22.207031 3.316406 21.707031 2.835938 21.097656 2.835938 Z M 21.464844 18.796875 C 21.464844 18.992188 21.300781 19.152344 21.097656 19.152344 L 2.589844 19.152344 C 2.386719 19.152344 2.21875 18.992188 2.21875 18.796875 L 2.21875 7.09375 L 17.394531 7.09375 C 17.597656 7.09375 17.765625 6.933594 17.765625 6.738281 C 17.765625 6.542969 17.597656 6.382812 17.394531 6.382812 L 2.21875 6.382812 L 2.21875 3.902344 C 2.21875 3.707031 2.386719 3.546875 2.589844 3.546875 L 21.097656 3.546875 C 21.300781 3.546875 21.464844 3.707031 21.464844 3.902344 Z M 21.464844 18.796875 "/>
<path style=" stroke:none;fill-rule:nonzero;fill:rgb(55.294118%,42.352941%,62.352941%);fill-opacity:1;" d="M 7.402344 4.253906 C 7.195312 4.253906 7.03125 4.414062 7.03125 4.609375 L 7.03125 5.320312 C 7.03125 5.515625 7.195312 5.675781 7.402344 5.675781 C 7.605469 5.675781 7.773438 5.515625 7.773438 5.320312 L 7.773438 4.609375 C 7.773438 4.414062 7.605469 4.253906 7.402344 4.253906 Z M 7.402344 4.253906 "/>
<path style=" stroke:none;fill-rule:nonzero;fill:rgb(55.294118%,42.352941%,62.352941%);fill-opacity:1;" d="M 5.550781 4.253906 C 5.347656 4.253906 5.179688 4.414062 5.179688 4.609375 L 5.179688 5.320312 C 5.179688 5.515625 5.347656 5.675781 5.550781 5.675781 C 5.757812 5.675781 5.921875 5.515625 5.921875 5.320312 L 5.921875 4.609375 C 5.921875 4.414062 5.757812 4.253906 5.550781 4.253906 Z M 5.550781 4.253906 "/>
<path style=" stroke:none;fill-rule:nonzero;fill:rgb(55.294118%,42.352941%,62.352941%);fill-opacity:1;" d="M 3.703125 4.253906 C 3.496094 4.253906 3.332031 4.414062 3.332031 4.609375 L 3.332031 5.320312 C 3.332031 5.515625 3.496094 5.675781 3.703125 5.675781 C 3.90625 5.675781 4.070312 5.515625 4.070312 5.320312 L 4.070312 4.609375 C 4.070312 4.414062 3.90625 4.253906 3.703125 4.253906 Z M 3.703125 4.253906 "/>
<path style=" stroke:none;fill-rule:nonzero;fill:rgb(55.294118%,42.352941%,62.352941%);fill-opacity:1;" d="M 12.953125 4.253906 C 12.75 4.253906 12.582031 4.414062 12.582031 4.609375 L 12.582031 5.320312 C 12.582031 5.515625 12.75 5.675781 12.953125 5.675781 C 13.160156 5.675781 13.324219 5.515625 13.324219 5.320312 L 13.324219 4.609375 C 13.324219 4.414062 13.160156 4.253906 12.953125 4.253906 Z M 12.953125 4.253906 "/>
<path style=" stroke:none;fill-rule:nonzero;fill:rgb(55.294118%,42.352941%,62.352941%);fill-opacity:1;" d="M 14.804688 4.253906 C 14.601562 4.253906 14.433594 4.414062 14.433594 4.609375 L 14.433594 5.320312 C 14.433594 5.515625 14.601562 5.675781 14.804688 5.675781 C 15.007812 5.675781 15.175781 5.515625 15.175781 5.320312 L 15.175781 4.609375 C 15.175781 4.414062 15.007812 4.253906 14.804688 4.253906 Z M 14.804688 4.253906 "/>
<path style=" stroke:none;fill-rule:nonzero;fill:rgb(55.294118%,42.352941%,62.352941%);fill-opacity:1;" d="M 16.65625 4.253906 C 16.449219 4.253906 16.285156 4.414062 16.285156 4.609375 L 16.285156 5.320312 C 16.285156 5.515625 16.449219 5.675781 16.65625 5.675781 C 16.859375 5.675781 17.023438 5.515625 17.023438 5.320312 L 17.023438 4.609375 C 17.023438 4.414062 16.859375 4.253906 16.65625 4.253906 Z M 16.65625 4.253906 "/>
<path style=" stroke:none;fill-rule:nonzero;fill:rgb(55.294118%,42.352941%,62.352941%);fill-opacity:1;" d="M 18.503906 5.675781 C 18.710938 5.675781 18.875 5.515625 18.875 5.320312 L 18.875 4.609375 C 18.875 4.414062 18.710938 4.253906 18.503906 4.253906 C 18.300781 4.253906 18.136719 4.414062 18.136719 4.609375 L 18.136719 5.320312 C 18.136719 5.515625 18.300781 5.675781 18.503906 5.675781 Z M 18.503906 5.675781 "/>
<path style=" stroke:none;fill-rule:nonzero;fill:rgb(55.294118%,42.352941%,62.352941%);fill-opacity:1;" d="M 20.355469 4.253906 C 20.152344 4.253906 19.984375 4.414062 19.984375 4.609375 L 19.984375 5.320312 C 19.984375 5.515625 20.152344 5.675781 20.355469 5.675781 C 20.558594 5.675781 20.726562 5.515625 20.726562 5.320312 L 20.726562 4.609375 C 20.726562 4.414062 20.558594 4.253906 20.355469 4.253906 Z M 20.355469 4.253906 "/>
<path style=" stroke:none;fill-rule:nonzero;fill:rgb(55.294118%,42.352941%,62.352941%);fill-opacity:1;" d="M 9.253906 4.253906 C 9.046875 4.253906 8.882812 4.414062 8.882812 4.609375 L 8.882812 5.320312 C 8.882812 5.515625 9.046875 5.675781 9.253906 5.675781 C 9.457031 5.675781 9.625 5.515625 9.625 5.320312 L 9.625 4.609375 C 9.625 4.414062 9.457031 4.253906 9.253906 4.253906 Z M 9.253906 4.253906 "/>
<path style=" stroke:none;fill-rule:nonzero;fill:rgb(55.294118%,42.352941%,62.352941%);fill-opacity:1;" d="M 11.101562 4.253906 C 10.898438 4.253906 10.734375 4.414062 10.734375 4.609375 L 10.734375 5.320312 C 10.734375 5.515625 10.898438 5.675781 11.101562 5.675781 C 11.308594 5.675781 11.472656 5.515625 11.472656 5.320312 L 11.472656 4.609375 C 11.472656 4.414062 11.308594 4.253906 11.101562 4.253906 Z M 11.101562 4.253906 "/>
<path style=" stroke:none;fill-rule:nonzero;fill:rgb(55.294118%,42.352941%,62.352941%);fill-opacity:1;" d="M 18.136719 9.929688 C 17.929688 9.929688 17.765625 10.089844 17.765625 10.285156 L 17.765625 12.769531 L 15.542969 12.769531 L 15.542969 10.285156 C 15.542969 10.089844 15.378906 9.929688 15.175781 9.929688 C 14.96875 9.929688 14.804688 10.089844 14.804688 10.285156 L 14.804688 15.960938 C 14.804688 16.15625 14.96875 16.316406 15.175781 16.316406 C 15.378906 16.316406 15.542969 16.15625 15.542969 15.960938 L 15.542969 13.476562 L 17.765625 13.476562 L 17.765625 15.960938 C 17.765625 16.15625 17.929688 16.316406 18.136719 16.316406 C 18.339844 16.316406 18.503906 16.15625 18.503906 15.960938 L 18.503906 10.285156 C 18.503906 10.089844 18.339844 9.929688 18.136719 9.929688 Z M 18.136719 9.929688 "/>
<path style=" stroke:none;fill-rule:nonzero;fill:rgb(55.294118%,42.352941%,62.352941%);fill-opacity:1;" d="M 6.664062 9.929688 L 5.921875 9.929688 C 5.105469 9.929688 4.441406 10.570312 4.441406 11.351562 L 4.441406 12.058594 C 4.441406 12.839844 5.105469 13.476562 5.921875 13.476562 L 6.664062 13.476562 C 7.070312 13.476562 7.402344 13.796875 7.402344 14.1875 L 7.402344 14.898438 C 7.402344 15.289062 7.070312 15.605469 6.664062 15.605469 L 5.921875 15.605469 C 5.511719 15.605469 5.179688 15.289062 5.179688 14.898438 L 5.179688 14.542969 C 5.179688 14.347656 5.015625 14.1875 4.8125 14.1875 C 4.605469 14.1875 4.441406 14.347656 4.441406 14.542969 L 4.441406 14.898438 C 4.441406 15.679688 5.105469 16.316406 5.921875 16.316406 L 6.664062 16.316406 C 7.476562 16.316406 8.140625 15.679688 8.140625 14.898438 L 8.140625 14.1875 C 8.140625 13.40625 7.476562 12.769531 6.664062 12.769531 L 5.921875 12.769531 C 5.511719 12.769531 5.179688 12.453125 5.179688 12.058594 L 5.179688 11.351562 C 5.179688 10.957031 5.511719 10.640625 5.921875 10.640625 L 6.664062 10.640625 C 7.070312 10.640625 7.402344 10.957031 7.402344 11.351562 L 7.402344 11.703125 C 7.402344 11.902344 7.566406 12.058594 7.773438 12.058594 C 7.976562 12.058594 8.140625 11.902344 8.140625 11.703125 L 8.140625 11.351562 C 8.140625 10.570312 7.476562 9.929688 6.664062 9.929688 Z M 6.664062 9.929688 "/>
<path style=" stroke:none;fill-rule:nonzero;fill:rgb(55.294118%,42.352941%,62.352941%);fill-opacity:1;" d="M 11.84375 9.929688 L 11.101562 9.929688 C 10.289062 9.929688 9.625 10.570312 9.625 11.351562 L 9.625 12.058594 C 9.625 12.839844 10.289062 13.476562 11.101562 13.476562 L 11.84375 13.476562 C 12.253906 13.476562 12.582031 13.796875 12.582031 14.1875 L 12.582031 14.898438 C 12.582031 15.289062 12.253906 15.605469 11.84375 15.605469 L 11.101562 15.605469 C 10.695312 15.605469 10.363281 15.289062 10.363281 14.898438 L 10.363281 14.542969 C 10.363281 14.347656 10.199219 14.1875 9.992188 14.1875 C 9.789062 14.1875 9.625 14.347656 9.625 14.542969 L 9.625 14.898438 C 9.625 15.679688 10.289062 16.316406 11.101562 16.316406 L 11.84375 16.316406 C 12.660156 16.316406 13.324219 15.679688 13.324219 14.898438 L 13.324219 14.1875 C 13.324219 13.40625 12.660156 12.769531 11.84375 12.769531 L 11.101562 12.769531 C 10.695312 12.769531 10.363281 12.453125 10.363281 12.058594 L 10.363281 11.351562 C 10.363281 10.957031 10.695312 10.640625 11.101562 10.640625 L 11.84375 10.640625 C 12.253906 10.640625 12.582031 10.957031 12.582031 11.351562 L 12.582031 11.703125 C 12.582031 11.902344 12.75 12.058594 12.953125 12.058594 C 13.160156 12.058594 13.324219 11.902344 13.324219 11.703125 L 13.324219 11.351562 C 13.324219 10.570312 12.660156 9.929688 11.84375 9.929688 Z M 11.84375 9.929688 "/>
</g>
</svg>
