<?xml version="1.0" encoding="UTF-8"?>
<svg xmlns="http://www.w3.org/2000/svg" xmlns:xlink="http://www.w3.org/1999/xlink" width="50pt" height="50pt" viewBox="0 0 50 50" version="1.1">
<g id="surface1">
<path style=" stroke:none;fill-rule:nonzero;fill:rgb(77.254902%,89.411765%,98.039216%);fill-opacity:1;" d="M 3.855469 11.464844 L 45.492188 11.464844 L 45.492188 42.042969 L 3.855469 42.042969 Z M 3.855469 11.464844 "/>
<path style=" stroke:none;fill-rule:nonzero;fill:rgb(89.019608%,94.901961%,100%);fill-opacity:1;" d="M 29.378906 42.042969 L 45.492188 26.074219 L 45.492188 12.230469 L 43.34375 12.230469 L 13.273438 42.042969 Z M 29.378906 42.042969 "/>
<path style=" stroke:none;fill-rule:nonzero;fill:rgb(89.019608%,94.901961%,100%);fill-opacity:1;" d="M 4.070312 42.042969 L 10.523438 42.042969 L 40.59375 12.230469 L 34.148438 12.230469 Z M 4.070312 42.042969 "/>
<path style=" stroke:none;fill-rule:nonzero;fill:rgb(89.019608%,94.901961%,100%);fill-opacity:1;" d="M 3.855469 39.535156 L 31.394531 12.230469 L 28.335938 12.230469 L 3.855469 36.503906 Z M 3.855469 39.535156 "/>
<path style=" stroke:none;fill-rule:nonzero;fill:rgb(67.45098%,71.764706%,81.568627%);fill-opacity:1;" d="M 43.953125 14.523438 L 5.394531 14.523438 C 4.550781 14.523438 3.855469 13.839844 3.855469 13 L 3.855469 8.410156 C 3.855469 7.570312 4.550781 6.878906 5.394531 6.878906 L 43.953125 6.878906 C 44.800781 6.878906 45.492188 7.570312 45.492188 8.410156 L 45.492188 13 C 45.492188 13.839844 44.800781 14.523438 43.953125 14.523438 Z M 43.953125 14.523438 "/>
<path style=" stroke:none;fill-rule:nonzero;fill:rgb(100%,97.254902%,97.254902%);fill-opacity:1;" d="M 18.503906 16.046875 L 19.457031 17.78125 L 21.207031 18.722656 L 19.457031 19.664062 L 18.503906 21.398438 L 17.554688 19.664062 L 15.804688 18.722656 L 17.554688 17.78125 Z M 18.503906 16.046875 "/>
<path style=" stroke:none;fill-rule:nonzero;fill:rgb(100%,97.254902%,97.254902%);fill-opacity:1;" d="M 40.421875 18.46875 L 41.082031 19.664062 L 42.277344 20.3125 L 41.082031 20.972656 L 40.421875 22.167969 L 39.761719 20.972656 L 38.550781 20.3125 L 39.761719 19.664062 Z M 40.421875 18.46875 "/>
<path style=" stroke:none;fill-rule:nonzero;fill:rgb(100%,97.254902%,97.254902%);fill-opacity:1;" d="M 26.707031 37.226562 L 27.164062 38.042969 L 27.988281 38.488281 L 27.164062 38.9375 L 26.707031 39.753906 L 26.269531 38.9375 L 25.449219 38.488281 L 26.269531 38.042969 Z M 26.707031 37.226562 "/>
<path style=" stroke:none;fill-rule:nonzero;fill:rgb(55.294118%,42.352941%,62.352941%);fill-opacity:1;" d="M 42.40625 13.757812 L 39.324219 13.757812 C 38.898438 13.757812 38.550781 14.101562 38.550781 14.523438 C 38.550781 14.941406 38.898438 15.289062 39.324219 15.289062 L 42.40625 15.289062 C 42.832031 15.289062 43.179688 14.941406 43.179688 14.523438 C 43.179688 14.101562 42.832031 13.757812 42.40625 13.757812 Z M 42.40625 13.757812 "/>
<path style=" stroke:none;fill-rule:nonzero;fill:rgb(55.294118%,42.352941%,62.352941%);fill-opacity:1;" d="M 43.953125 6.113281 L 5.394531 6.113281 C 4.125 6.113281 3.085938 7.148438 3.085938 8.410156 L 3.085938 40.511719 C 3.085938 41.773438 4.125 42.808594 5.394531 42.808594 L 43.953125 42.808594 C 45.222656 42.808594 46.265625 41.773438 46.265625 40.511719 L 46.265625 8.410156 C 46.265625 7.148438 45.222656 6.113281 43.953125 6.113281 Z M 44.71875 40.511719 C 44.71875 40.929688 44.375 41.277344 43.953125 41.277344 L 5.394531 41.277344 C 4.972656 41.277344 4.621094 40.929688 4.621094 40.511719 L 4.621094 15.289062 L 36.238281 15.289062 C 36.660156 15.289062 37.011719 14.941406 37.011719 14.523438 C 37.011719 14.101562 36.660156 13.757812 36.238281 13.757812 L 4.621094 13.757812 L 4.621094 8.410156 C 4.621094 7.988281 4.972656 7.644531 5.394531 7.644531 L 43.953125 7.644531 C 44.375 7.644531 44.71875 7.988281 44.71875 8.410156 Z M 44.71875 40.511719 "/>
<path style=" stroke:none;fill-rule:nonzero;fill:rgb(55.294118%,42.352941%,62.352941%);fill-opacity:1;" d="M 15.421875 9.167969 C 14.988281 9.167969 14.648438 9.511719 14.648438 9.933594 L 14.648438 11.464844 C 14.648438 11.886719 14.988281 12.230469 15.421875 12.230469 C 15.84375 12.230469 16.195312 11.886719 16.195312 11.464844 L 16.195312 9.933594 C 16.195312 9.511719 15.84375 9.167969 15.421875 9.167969 Z M 15.421875 9.167969 "/>
<path style=" stroke:none;fill-rule:nonzero;fill:rgb(55.294118%,42.352941%,62.352941%);fill-opacity:1;" d="M 11.5625 9.167969 C 11.140625 9.167969 10.792969 9.511719 10.792969 9.933594 L 10.792969 11.464844 C 10.792969 11.886719 11.140625 12.230469 11.5625 12.230469 C 11.996094 12.230469 12.335938 11.886719 12.335938 11.464844 L 12.335938 9.933594 C 12.335938 9.511719 11.996094 9.167969 11.5625 9.167969 Z M 11.5625 9.167969 "/>
<path style=" stroke:none;fill-rule:nonzero;fill:rgb(55.294118%,42.352941%,62.352941%);fill-opacity:1;" d="M 7.714844 9.167969 C 7.285156 9.167969 6.941406 9.511719 6.941406 9.933594 L 6.941406 11.464844 C 6.941406 11.886719 7.285156 12.230469 7.714844 12.230469 C 8.136719 12.230469 8.480469 11.886719 8.480469 11.464844 L 8.480469 9.933594 C 8.480469 9.511719 8.136719 9.167969 7.714844 9.167969 Z M 7.714844 9.167969 "/>
<path style=" stroke:none;fill-rule:nonzero;fill:rgb(55.294118%,42.352941%,62.352941%);fill-opacity:1;" d="M 26.984375 9.167969 C 26.5625 9.167969 26.210938 9.511719 26.210938 9.933594 L 26.210938 11.464844 C 26.210938 11.886719 26.5625 12.230469 26.984375 12.230469 C 27.417969 12.230469 27.757812 11.886719 27.757812 11.464844 L 27.757812 9.933594 C 27.757812 9.511719 27.417969 9.167969 26.984375 9.167969 Z M 26.984375 9.167969 "/>
<path style=" stroke:none;fill-rule:nonzero;fill:rgb(55.294118%,42.352941%,62.352941%);fill-opacity:1;" d="M 30.84375 9.167969 C 30.417969 9.167969 30.070312 9.511719 30.070312 9.933594 L 30.070312 11.464844 C 30.070312 11.886719 30.417969 12.230469 30.84375 12.230469 C 31.265625 12.230469 31.617188 11.886719 31.617188 11.464844 L 31.617188 9.933594 C 31.617188 9.511719 31.265625 9.167969 30.84375 9.167969 Z M 30.84375 9.167969 "/>
<path style=" stroke:none;fill-rule:nonzero;fill:rgb(55.294118%,42.352941%,62.352941%);fill-opacity:1;" d="M 34.699219 9.167969 C 34.269531 9.167969 33.925781 9.511719 33.925781 9.933594 L 33.925781 11.464844 C 33.925781 11.886719 34.269531 12.230469 34.699219 12.230469 C 35.125 12.230469 35.464844 11.886719 35.464844 11.464844 L 35.464844 9.933594 C 35.464844 9.511719 35.125 9.167969 34.699219 9.167969 Z M 34.699219 9.167969 "/>
<path style=" stroke:none;fill-rule:nonzero;fill:rgb(55.294118%,42.352941%,62.352941%);fill-opacity:1;" d="M 38.550781 12.230469 C 38.980469 12.230469 39.324219 11.886719 39.324219 11.464844 L 39.324219 9.933594 C 39.324219 9.511719 38.980469 9.167969 38.550781 9.167969 C 38.125 9.167969 37.785156 9.511719 37.785156 9.933594 L 37.785156 11.464844 C 37.785156 11.886719 38.125 12.230469 38.550781 12.230469 Z M 38.550781 12.230469 "/>
<path style=" stroke:none;fill-rule:nonzero;fill:rgb(55.294118%,42.352941%,62.352941%);fill-opacity:1;" d="M 42.40625 9.167969 C 41.984375 9.167969 41.632812 9.511719 41.632812 9.933594 L 41.632812 11.464844 C 41.632812 11.886719 41.984375 12.230469 42.40625 12.230469 C 42.832031 12.230469 43.179688 11.886719 43.179688 11.464844 L 43.179688 9.933594 C 43.179688 9.511719 42.832031 9.167969 42.40625 9.167969 Z M 42.40625 9.167969 "/>
<path style=" stroke:none;fill-rule:nonzero;fill:rgb(55.294118%,42.352941%,62.352941%);fill-opacity:1;" d="M 19.277344 9.167969 C 18.847656 9.167969 18.503906 9.511719 18.503906 9.933594 L 18.503906 11.464844 C 18.503906 11.886719 18.847656 12.230469 19.277344 12.230469 C 19.703125 12.230469 20.050781 11.886719 20.050781 11.464844 L 20.050781 9.933594 C 20.050781 9.511719 19.703125 9.167969 19.277344 9.167969 Z M 19.277344 9.167969 "/>
<path style=" stroke:none;fill-rule:nonzero;fill:rgb(55.294118%,42.352941%,62.352941%);fill-opacity:1;" d="M 23.128906 9.167969 C 22.707031 9.167969 22.363281 9.511719 22.363281 9.933594 L 22.363281 11.464844 C 22.363281 11.886719 22.707031 12.230469 23.128906 12.230469 C 23.558594 12.230469 23.902344 11.886719 23.902344 11.464844 L 23.902344 9.933594 C 23.902344 9.511719 23.558594 9.167969 23.128906 9.167969 Z M 23.128906 9.167969 "/>
<path style=" stroke:none;fill-rule:nonzero;fill:rgb(55.294118%,42.352941%,62.352941%);fill-opacity:1;" d="M 37.785156 21.398438 C 37.355469 21.398438 37.011719 21.746094 37.011719 22.167969 L 37.011719 27.519531 L 32.382812 27.519531 L 32.382812 22.167969 C 32.382812 21.746094 32.039062 21.398438 31.617188 21.398438 C 31.183594 21.398438 30.84375 21.746094 30.84375 22.167969 L 30.84375 34.398438 C 30.84375 34.820312 31.183594 35.164062 31.617188 35.164062 C 32.039062 35.164062 32.382812 34.820312 32.382812 34.398438 L 32.382812 29.042969 L 37.011719 29.042969 L 37.011719 34.398438 C 37.011719 34.820312 37.355469 35.164062 37.785156 35.164062 C 38.207031 35.164062 38.550781 34.820312 38.550781 34.398438 L 38.550781 22.167969 C 38.550781 21.746094 38.207031 21.398438 37.785156 21.398438 Z M 37.785156 21.398438 "/>
<path style=" stroke:none;fill-rule:nonzero;fill:rgb(55.294118%,42.352941%,62.352941%);fill-opacity:1;" d="M 13.882812 21.398438 L 12.335938 21.398438 C 10.636719 21.398438 9.253906 22.78125 9.253906 24.464844 L 9.253906 25.988281 C 9.253906 27.671875 10.636719 29.042969 12.335938 29.042969 L 13.882812 29.042969 C 14.730469 29.042969 15.421875 29.734375 15.421875 30.578125 L 15.421875 32.109375 C 15.421875 32.949219 14.730469 33.632812 13.882812 33.632812 L 12.335938 33.632812 C 11.484375 33.632812 10.792969 32.949219 10.792969 32.109375 L 10.792969 31.34375 C 10.792969 30.921875 10.449219 30.578125 10.027344 30.578125 C 9.59375 30.578125 9.253906 30.921875 9.253906 31.34375 L 9.253906 32.109375 C 9.253906 33.792969 10.636719 35.164062 12.335938 35.164062 L 13.882812 35.164062 C 15.574219 35.164062 16.960938 33.792969 16.960938 32.109375 L 16.960938 30.578125 C 16.960938 28.894531 15.574219 27.519531 13.882812 27.519531 L 12.335938 27.519531 C 11.484375 27.519531 10.792969 26.839844 10.792969 25.988281 L 10.792969 24.464844 C 10.792969 23.613281 11.484375 22.933594 12.335938 22.933594 L 13.882812 22.933594 C 14.730469 22.933594 15.421875 23.613281 15.421875 24.464844 L 15.421875 25.222656 C 15.421875 25.652344 15.761719 25.988281 16.195312 25.988281 C 16.617188 25.988281 16.960938 25.652344 16.960938 25.222656 L 16.960938 24.464844 C 16.960938 22.78125 15.574219 21.398438 13.882812 21.398438 Z M 13.882812 21.398438 "/>
<path style=" stroke:none;fill-rule:nonzero;fill:rgb(55.294118%,42.352941%,62.352941%);fill-opacity:1;" d="M 24.675781 21.398438 L 23.128906 21.398438 C 21.433594 21.398438 20.050781 22.78125 20.050781 24.464844 L 20.050781 25.988281 C 20.050781 27.671875 21.433594 29.042969 23.128906 29.042969 L 24.675781 29.042969 C 25.527344 29.042969 26.210938 29.734375 26.210938 30.578125 L 26.210938 32.109375 C 26.210938 32.949219 25.527344 33.632812 24.675781 33.632812 L 23.128906 33.632812 C 22.28125 33.632812 21.589844 32.949219 21.589844 32.109375 L 21.589844 31.34375 C 21.589844 30.921875 21.25 30.578125 20.816406 30.578125 C 20.394531 30.578125 20.050781 30.921875 20.050781 31.34375 L 20.050781 32.109375 C 20.050781 33.792969 21.433594 35.164062 23.128906 35.164062 L 24.675781 35.164062 C 26.375 35.164062 27.757812 33.792969 27.757812 32.109375 L 27.757812 30.578125 C 27.757812 28.894531 26.375 27.519531 24.675781 27.519531 L 23.128906 27.519531 C 22.28125 27.519531 21.589844 26.839844 21.589844 25.988281 L 21.589844 24.464844 C 21.589844 23.613281 22.28125 22.933594 23.128906 22.933594 L 24.675781 22.933594 C 25.527344 22.933594 26.210938 23.613281 26.210938 24.464844 L 26.210938 25.222656 C 26.210938 25.652344 26.5625 25.988281 26.984375 25.988281 C 27.417969 25.988281 27.757812 25.652344 27.757812 25.222656 L 27.757812 24.464844 C 27.757812 22.78125 26.375 21.398438 24.675781 21.398438 Z M 24.675781 21.398438 "/>
</g>
</svg>
