<?xml version="1.0" encoding="UTF-8"?>
<svg xmlns="http://www.w3.org/2000/svg" xmlns:xlink="http://www.w3.org/1999/xlink" width="75pt" height="75pt" viewBox="0 0 75 75" version="1.1">
<g id="surface1">
<path style=" stroke:none;fill-rule:nonzero;fill:rgb(77.254902%,89.411765%,98.039216%);fill-opacity:1;" d="M 5.796875 17.394531 L 68.421875 17.394531 L 68.421875 63.78125 L 5.796875 63.78125 Z M 5.796875 17.394531 "/>
<path style=" stroke:none;fill-rule:nonzero;fill:rgb(89.019608%,94.901961%,100%);fill-opacity:1;" d="M 44.1875 63.78125 L 68.421875 39.550781 L 68.421875 18.554688 L 65.191406 18.554688 L 19.964844 63.78125 Z M 44.1875 63.78125 "/>
<path style=" stroke:none;fill-rule:nonzero;fill:rgb(89.019608%,94.901961%,100%);fill-opacity:1;" d="M 6.125 63.78125 L 15.824219 63.78125 L 61.050781 18.554688 L 51.351562 18.554688 Z M 6.125 63.78125 "/>
<path style=" stroke:none;fill-rule:nonzero;fill:rgb(89.019608%,94.901961%,100%);fill-opacity:1;" d="M 5.796875 59.976562 L 47.21875 18.554688 L 42.617188 18.554688 L 5.796875 55.375 Z M 5.796875 59.976562 "/>
<path style=" stroke:none;fill-rule:nonzero;fill:rgb(67.45098%,71.764706%,81.568627%);fill-opacity:1;" d="M 66.101562 22.035156 L 8.117188 22.035156 C 6.835938 22.035156 5.796875 20.996094 5.796875 19.714844 L 5.796875 12.757812 C 5.796875 11.476562 6.835938 10.4375 8.117188 10.4375 L 66.101562 10.4375 C 67.382812 10.4375 68.421875 11.476562 68.421875 12.757812 L 68.421875 19.714844 C 68.421875 20.996094 67.382812 22.035156 66.101562 22.035156 Z M 66.101562 22.035156 "/>
<path style=" stroke:none;fill-rule:nonzero;fill:rgb(100%,97.254902%,97.254902%);fill-opacity:1;" d="M 27.832031 24.34375 L 29.265625 26.96875 L 31.890625 28.402344 L 29.265625 29.839844 L 27.832031 32.46875 L 26.398438 29.839844 L 23.773438 28.402344 L 26.398438 26.96875 Z M 27.832031 24.34375 "/>
<path style=" stroke:none;fill-rule:nonzero;fill:rgb(100%,97.254902%,97.254902%);fill-opacity:1;" d="M 60.789062 28.023438 L 61.78125 29.832031 L 63.589844 30.824219 L 61.78125 31.816406 L 60.789062 33.628906 L 59.800781 31.816406 L 57.984375 30.824219 L 59.800781 29.832031 Z M 60.789062 28.023438 "/>
<path style=" stroke:none;fill-rule:nonzero;fill:rgb(100%,97.254902%,97.254902%);fill-opacity:1;" d="M 40.175781 56.480469 L 40.855469 57.714844 L 42.089844 58.394531 L 40.855469 59.066406 L 40.175781 60.304688 L 39.503906 59.066406 L 38.269531 58.394531 L 39.503906 57.714844 Z M 40.175781 56.480469 "/>
<path style=" stroke:none;fill-rule:nonzero;fill:rgb(55.294118%,42.352941%,62.352941%);fill-opacity:1;" d="M 63.78125 20.875 L 59.144531 20.875 C 58.503906 20.875 57.984375 21.394531 57.984375 22.035156 C 57.984375 22.675781 58.503906 23.195312 59.144531 23.195312 L 63.78125 23.195312 C 64.421875 23.195312 64.941406 22.675781 64.941406 22.035156 C 64.941406 21.394531 64.421875 20.875 63.78125 20.875 Z M 63.78125 20.875 "/>
<path style=" stroke:none;fill-rule:nonzero;fill:rgb(55.294118%,42.352941%,62.352941%);fill-opacity:1;" d="M 66.101562 9.277344 L 8.117188 9.277344 C 6.203125 9.277344 4.636719 10.839844 4.636719 12.757812 L 4.636719 61.460938 C 4.636719 63.378906 6.203125 64.941406 8.117188 64.941406 L 66.101562 64.941406 C 68.015625 64.941406 69.582031 63.378906 69.582031 61.460938 L 69.582031 12.757812 C 69.582031 10.839844 68.015625 9.277344 66.101562 9.277344 Z M 67.261719 61.460938 C 67.261719 62.101562 66.742188 62.621094 66.101562 62.621094 L 8.117188 62.621094 C 7.476562 62.621094 6.957031 62.101562 6.957031 61.460938 L 6.957031 23.195312 L 54.503906 23.195312 C 55.144531 23.195312 55.664062 22.675781 55.664062 22.035156 C 55.664062 21.394531 55.144531 20.875 54.503906 20.875 L 6.957031 20.875 L 6.957031 12.757812 C 6.957031 12.117188 7.476562 11.597656 8.117188 11.597656 L 66.101562 11.597656 C 66.742188 11.597656 67.261719 12.117188 67.261719 12.757812 Z M 67.261719 61.460938 "/>
<path style=" stroke:none;fill-rule:nonzero;fill:rgb(55.294118%,42.352941%,62.352941%);fill-opacity:1;" d="M 23.195312 13.914062 C 22.550781 13.914062 22.035156 14.433594 22.035156 15.074219 L 22.035156 17.394531 C 22.035156 18.035156 22.550781 18.554688 23.195312 18.554688 C 23.835938 18.554688 24.351562 18.035156 24.351562 17.394531 L 24.351562 15.074219 C 24.351562 14.433594 23.835938 13.914062 23.195312 13.914062 Z M 23.195312 13.914062 "/>
<path style=" stroke:none;fill-rule:nonzero;fill:rgb(55.294118%,42.352941%,62.352941%);fill-opacity:1;" d="M 17.394531 13.914062 C 16.753906 13.914062 16.234375 14.433594 16.234375 15.074219 L 16.234375 17.394531 C 16.234375 18.035156 16.753906 18.554688 17.394531 18.554688 C 18.035156 18.554688 18.554688 18.035156 18.554688 17.394531 L 18.554688 15.074219 C 18.554688 14.433594 18.035156 13.914062 17.394531 13.914062 Z M 17.394531 13.914062 "/>
<path style=" stroke:none;fill-rule:nonzero;fill:rgb(55.294118%,42.352941%,62.352941%);fill-opacity:1;" d="M 11.597656 13.914062 C 10.957031 13.914062 10.4375 14.433594 10.4375 15.074219 L 10.4375 17.394531 C 10.4375 18.035156 10.957031 18.554688 11.597656 18.554688 C 12.238281 18.554688 12.757812 18.035156 12.757812 17.394531 L 12.757812 15.074219 C 12.757812 14.433594 12.238281 13.914062 11.597656 13.914062 Z M 11.597656 13.914062 "/>
<path style=" stroke:none;fill-rule:nonzero;fill:rgb(55.294118%,42.352941%,62.352941%);fill-opacity:1;" d="M 40.589844 13.914062 C 39.949219 13.914062 39.429688 14.433594 39.429688 15.074219 L 39.429688 17.394531 C 39.429688 18.035156 39.949219 18.554688 40.589844 18.554688 C 41.230469 18.554688 41.75 18.035156 41.75 17.394531 L 41.75 15.074219 C 41.75 14.433594 41.230469 13.914062 40.589844 13.914062 Z M 40.589844 13.914062 "/>
<path style=" stroke:none;fill-rule:nonzero;fill:rgb(55.294118%,42.352941%,62.352941%);fill-opacity:1;" d="M 46.386719 13.914062 C 45.746094 13.914062 45.226562 14.433594 45.226562 15.074219 L 45.226562 17.394531 C 45.226562 18.035156 45.746094 18.554688 46.386719 18.554688 C 47.027344 18.554688 47.546875 18.035156 47.546875 17.394531 L 47.546875 15.074219 C 47.546875 14.433594 47.027344 13.914062 46.386719 13.914062 Z M 46.386719 13.914062 "/>
<path style=" stroke:none;fill-rule:nonzero;fill:rgb(55.294118%,42.352941%,62.352941%);fill-opacity:1;" d="M 52.183594 13.914062 C 51.542969 13.914062 51.023438 14.433594 51.023438 15.074219 L 51.023438 17.394531 C 51.023438 18.035156 51.542969 18.554688 52.183594 18.554688 C 52.824219 18.554688 53.34375 18.035156 53.34375 17.394531 L 53.34375 15.074219 C 53.34375 14.433594 52.824219 13.914062 52.183594 13.914062 Z M 52.183594 13.914062 "/>
<path style=" stroke:none;fill-rule:nonzero;fill:rgb(55.294118%,42.352941%,62.352941%);fill-opacity:1;" d="M 57.984375 18.554688 C 58.625 18.554688 59.144531 18.035156 59.144531 17.394531 L 59.144531 15.074219 C 59.144531 14.433594 58.625 13.914062 57.984375 13.914062 C 57.34375 13.914062 56.824219 14.433594 56.824219 15.074219 L 56.824219 17.394531 C 56.824219 18.035156 57.34375 18.554688 57.984375 18.554688 Z M 57.984375 18.554688 "/>
<path style=" stroke:none;fill-rule:nonzero;fill:rgb(55.294118%,42.352941%,62.352941%);fill-opacity:1;" d="M 63.78125 13.914062 C 63.140625 13.914062 62.621094 14.433594 62.621094 15.074219 L 62.621094 17.394531 C 62.621094 18.035156 63.140625 18.554688 63.78125 18.554688 C 64.421875 18.554688 64.941406 18.035156 64.941406 17.394531 L 64.941406 15.074219 C 64.941406 14.433594 64.421875 13.914062 63.78125 13.914062 Z M 63.78125 13.914062 "/>
<path style=" stroke:none;fill-rule:nonzero;fill:rgb(55.294118%,42.352941%,62.352941%);fill-opacity:1;" d="M 28.992188 13.914062 C 28.351562 13.914062 27.832031 14.433594 27.832031 15.074219 L 27.832031 17.394531 C 27.832031 18.035156 28.351562 18.554688 28.992188 18.554688 C 29.632812 18.554688 30.152344 18.035156 30.152344 17.394531 L 30.152344 15.074219 C 30.152344 14.433594 29.632812 13.914062 28.992188 13.914062 Z M 28.992188 13.914062 "/>
<path style=" stroke:none;fill-rule:nonzero;fill:rgb(55.294118%,42.352941%,62.352941%);fill-opacity:1;" d="M 34.789062 13.914062 C 34.148438 13.914062 33.628906 14.433594 33.628906 15.074219 L 33.628906 17.394531 C 33.628906 18.035156 34.148438 18.554688 34.789062 18.554688 C 35.429688 18.554688 35.949219 18.035156 35.949219 17.394531 L 35.949219 15.074219 C 35.949219 14.433594 35.429688 13.914062 34.789062 13.914062 Z M 34.789062 13.914062 "/>
<path style=" stroke:none;fill-rule:nonzero;fill:rgb(55.294118%,42.352941%,62.352941%);fill-opacity:1;" d="M 56.824219 32.46875 C 56.183594 32.46875 55.664062 32.988281 55.664062 33.628906 L 55.664062 41.75 L 48.707031 41.75 L 48.707031 33.628906 C 48.707031 32.988281 48.1875 32.46875 47.546875 32.46875 C 46.90625 32.46875 46.386719 32.988281 46.386719 33.628906 L 46.386719 52.183594 C 46.386719 52.824219 46.90625 53.34375 47.546875 53.34375 C 48.1875 53.34375 48.707031 52.824219 48.707031 52.183594 L 48.707031 44.066406 L 55.664062 44.066406 L 55.664062 52.183594 C 55.664062 52.824219 56.183594 53.34375 56.824219 53.34375 C 57.464844 53.34375 57.984375 52.824219 57.984375 52.183594 L 57.984375 33.628906 C 57.984375 32.988281 57.464844 32.46875 56.824219 32.46875 Z M 56.824219 32.46875 "/>
<path style=" stroke:none;fill-rule:nonzero;fill:rgb(55.294118%,42.352941%,62.352941%);fill-opacity:1;" d="M 20.875 32.46875 L 18.554688 32.46875 C 16 32.46875 13.914062 34.554688 13.914062 37.109375 L 13.914062 39.429688 C 13.914062 41.984375 16 44.066406 18.554688 44.066406 L 20.875 44.066406 C 22.15625 44.066406 23.195312 45.105469 23.195312 46.386719 L 23.195312 48.707031 C 23.195312 49.988281 22.15625 51.023438 20.875 51.023438 L 18.554688 51.023438 C 17.273438 51.023438 16.234375 49.988281 16.234375 48.707031 L 16.234375 47.546875 C 16.234375 46.90625 15.714844 46.386719 15.074219 46.386719 C 14.433594 46.386719 13.914062 46.90625 13.914062 47.546875 L 13.914062 48.707031 C 13.914062 51.261719 16 53.34375 18.554688 53.34375 L 20.875 53.34375 C 23.429688 53.34375 25.511719 51.261719 25.511719 48.707031 L 25.511719 46.386719 C 25.511719 43.832031 23.429688 41.75 20.875 41.75 L 18.554688 41.75 C 17.273438 41.75 16.234375 40.710938 16.234375 39.429688 L 16.234375 37.109375 C 16.234375 35.828125 17.273438 34.789062 18.554688 34.789062 L 20.875 34.789062 C 22.15625 34.789062 23.195312 35.828125 23.195312 37.109375 L 23.195312 38.269531 C 23.195312 38.910156 23.710938 39.429688 24.351562 39.429688 C 24.992188 39.429688 25.511719 38.910156 25.511719 38.269531 L 25.511719 37.109375 C 25.511719 34.554688 23.429688 32.46875 20.875 32.46875 Z M 20.875 32.46875 "/>
<path style=" stroke:none;fill-rule:nonzero;fill:rgb(55.294118%,42.352941%,62.352941%);fill-opacity:1;" d="M 37.109375 32.46875 L 34.789062 32.46875 C 32.234375 32.46875 30.152344 34.554688 30.152344 37.109375 L 30.152344 39.429688 C 30.152344 41.984375 32.234375 44.066406 34.789062 44.066406 L 37.109375 44.066406 C 38.390625 44.066406 39.429688 45.105469 39.429688 46.386719 L 39.429688 48.707031 C 39.429688 49.988281 38.390625 51.023438 37.109375 51.023438 L 34.789062 51.023438 C 33.507812 51.023438 32.46875 49.988281 32.46875 48.707031 L 32.46875 47.546875 C 32.46875 46.90625 31.953125 46.386719 31.3125 46.386719 C 30.671875 46.386719 30.152344 46.90625 30.152344 47.546875 L 30.152344 48.707031 C 30.152344 51.261719 32.234375 53.34375 34.789062 53.34375 L 37.109375 53.34375 C 39.664062 53.34375 41.75 51.261719 41.75 48.707031 L 41.75 46.386719 C 41.75 43.832031 39.664062 41.75 37.109375 41.75 L 34.789062 41.75 C 33.507812 41.75 32.46875 40.710938 32.46875 39.429688 L 32.46875 37.109375 C 32.46875 35.828125 33.507812 34.789062 34.789062 34.789062 L 37.109375 34.789062 C 38.390625 34.789062 39.429688 35.828125 39.429688 37.109375 L 39.429688 38.269531 C 39.429688 38.910156 39.949219 39.429688 40.589844 39.429688 C 41.230469 39.429688 41.75 38.910156 41.75 38.269531 L 41.75 37.109375 C 41.75 34.554688 39.664062 32.46875 37.109375 32.46875 Z M 37.109375 32.46875 "/>
</g>
</svg>
