<?xml version="1.0" encoding="iso-8859-1"?>
<!-- Generator: Adobe Illustrator 21.1.0, SVG Export Plug-In . SVG Version: 6.00 Build 0)  -->
<svg xmlns="http://www.w3.org/2000/svg" xmlns:xlink="http://www.w3.org/1999/xlink" version="1.1" id="Layer_1" x="0px" y="0px" viewBox="0 0 64 64" style="enable-background:new 0 0 64 64;" xml:space="preserve">
<g>
	<g>
		<g>
			<rect x="5" y="15" style="fill:#C5E4FA;" width="50" height="30"/>
			<polygon style="fill:#E3F2FF;" points="38.107,55 59,34.107 59,16 56.214,16 17.214,55    "/>
			<polygon style="fill:#E3F2FF;" points="5.286,55 13.643,55 52.643,16 44.286,16    "/>
			<polygon style="fill:#E3F2FF;" points="5,51.714 40.714,16 36.75,16 5,47.75    "/>
			<path style="fill:#ACB7D0;" d="M57,19H7c-1.105,0-2-0.895-2-2v-6c0-1.105,0.895-2,2-2h50c1.105,0,2,0.895,2,2v6     C59,18.105,58.105,19,57,19z"/>
		</g>
		<polygon style="fill:#FFF8F8;" points="24,20.994 25.238,23.258 27.502,24.496 25.238,25.734 24,27.998 22.762,25.734     20.498,24.496 22.762,23.258   "/>
		<polygon style="fill:#FFF8F8;" points="52.419,24.162 53.274,25.726 54.838,26.581 53.274,27.436 52.419,29 51.564,27.436     50,26.581 51.564,25.726   "/>
		<polygon style="fill:#FFF8F8;" points="34.648,48.704 35.231,49.769 36.296,50.352 35.231,50.935 34.648,52 34.065,50.935     33,50.352 34.065,49.769   "/>
	</g>
	<g>
		<path style="fill:#8D6C9F;" d="M55,18h-4c-0.553,0-1,0.447-1,1s0.447,1,1,1h4c0.553,0,1-0.447,1-1S55.553,18,55,18z"/>
		<path style="fill:#8D6C9F;" d="M57,8H7c-1.654,0-3,1.346-3,3v42c0,1.654,1.346,3,3,3h50c1.654,0,3-1.346,3-3V11    C60,9.346,58.654,8,57,8z M58,53c0,0.552-0.448,1-1,1H7c-0.552,0-1-0.448-1-1V20h41c0.553,0,1-0.447,1-1s-0.447-1-1-1H6v-7    c0-0.552,0.448-1,1-1h50c0.552,0,1,0.448,1,1V53z"/>
		<path style="fill:#8D6C9F;" d="M20,12c-0.553,0-1,0.447-1,1v2c0,0.553,0.447,1,1,1s1-0.447,1-1v-2C21,12.447,20.553,12,20,12z"/>
		<path style="fill:#8D6C9F;" d="M15,12c-0.553,0-1,0.447-1,1v2c0,0.553,0.447,1,1,1s1-0.447,1-1v-2C16,12.447,15.553,12,15,12z"/>
		<path style="fill:#8D6C9F;" d="M10,12c-0.553,0-1,0.447-1,1v2c0,0.553,0.447,1,1,1s1-0.447,1-1v-2C11,12.447,10.553,12,10,12z"/>
		<path style="fill:#8D6C9F;" d="M35,12c-0.553,0-1,0.447-1,1v2c0,0.553,0.447,1,1,1s1-0.447,1-1v-2C36,12.447,35.553,12,35,12z"/>
		<path style="fill:#8D6C9F;" d="M40,12c-0.553,0-1,0.447-1,1v2c0,0.553,0.447,1,1,1s1-0.447,1-1v-2C41,12.447,40.553,12,40,12z"/>
		<path style="fill:#8D6C9F;" d="M45,12c-0.553,0-1,0.447-1,1v2c0,0.553,0.447,1,1,1s1-0.447,1-1v-2C46,12.447,45.553,12,45,12z"/>
		<path style="fill:#8D6C9F;" d="M50,16c0.553,0,1-0.447,1-1v-2c0-0.553-0.447-1-1-1s-1,0.447-1,1v2C49,15.553,49.447,16,50,16z"/>
		<path style="fill:#8D6C9F;" d="M55,12c-0.553,0-1,0.447-1,1v2c0,0.553,0.447,1,1,1s1-0.447,1-1v-2C56,12.447,55.553,12,55,12z"/>
		<path style="fill:#8D6C9F;" d="M25,12c-0.553,0-1,0.447-1,1v2c0,0.553,0.447,1,1,1s1-0.447,1-1v-2C26,12.447,25.553,12,25,12z"/>
		<path style="fill:#8D6C9F;" d="M30,12c-0.553,0-1,0.447-1,1v2c0,0.553,0.447,1,1,1s1-0.447,1-1v-2C31,12.447,30.553,12,30,12z"/>
		<path style="fill:#8D6C9F;" d="M49,28c-0.553,0-1,0.447-1,1v7h-6v-7c0-0.553-0.447-1-1-1s-1,0.447-1,1v16c0,0.553,0.447,1,1,1    s1-0.447,1-1v-7h6v7c0,0.553,0.447,1,1,1s1-0.447,1-1V29C50,28.447,49.553,28,49,28z"/>
		<path style="fill:#8D6C9F;" d="M18,28h-2c-2.206,0-4,1.794-4,4v2c0,2.206,1.794,4,4,4h2c1.103,0,2,0.897,2,2v2    c0,1.103-0.897,2-2,2h-2c-1.103,0-2-0.897-2-2v-1c0-0.553-0.447-1-1-1s-1,0.447-1,1v1c0,2.206,1.794,4,4,4h2c2.206,0,4-1.794,4-4    v-2c0-2.206-1.794-4-4-4h-2c-1.103,0-2-0.897-2-2v-2c0-1.103,0.897-2,2-2h2c1.103,0,2,0.897,2,2v1c0,0.553,0.447,1,1,1    s1-0.447,1-1v-1C22,29.794,20.206,28,18,28z"/>
		<path style="fill:#8D6C9F;" d="M32,28h-2c-2.206,0-4,1.794-4,4v2c0,2.206,1.794,4,4,4h2c1.103,0,2,0.897,2,2v2    c0,1.103-0.897,2-2,2h-2c-1.103,0-2-0.897-2-2v-1c0-0.553-0.447-1-1-1s-1,0.447-1,1v1c0,2.206,1.794,4,4,4h2c2.206,0,4-1.794,4-4    v-2c0-2.206-1.794-4-4-4h-2c-1.103,0-2-0.897-2-2v-2c0-1.103,0.897-2,2-2h2c1.103,0,2,0.897,2,2v1c0,0.553,0.447,1,1,1    s1-0.447,1-1v-1C36,29.794,34.206,28,32,28z"/>
	</g>
</g>
</svg>
