<?xml version="1.0" encoding="UTF-8"?>
<svg xmlns="http://www.w3.org/2000/svg" xmlns:xlink="http://www.w3.org/1999/xlink" width="32pt" height="32pt" viewBox="0 0 32 32" version="1.1">
<g id="surface1">
<path style=" stroke:none;fill-rule:nonzero;fill:rgb(77.254902%,89.411765%,98.039216%);fill-opacity:1;" d="M 2.5 7.5 L 29.5 7.5 L 29.5 27.5 L 2.5 27.5 Z M 2.5 7.5 "/>
<path style=" stroke:none;fill-rule:nonzero;fill:rgb(89.019608%,94.901961%,100%);fill-opacity:1;" d="M 19.054688 27.5 L 29.5 17.054688 L 29.5 8 L 28.105469 8 L 8.605469 27.5 Z M 19.054688 27.5 "/>
<path style=" stroke:none;fill-rule:nonzero;fill:rgb(89.019608%,94.901961%,100%);fill-opacity:1;" d="M 2.644531 27.5 L 6.820312 27.5 L 26.320312 8 L 22.144531 8 Z M 2.644531 27.5 "/>
<path style=" stroke:none;fill-rule:nonzero;fill:rgb(89.019608%,94.901961%,100%);fill-opacity:1;" d="M 2.5 25.855469 L 20.355469 8 L 18.375 8 L 2.5 23.875 Z M 2.5 25.855469 "/>
<path style=" stroke:none;fill-rule:nonzero;fill:rgb(67.45098%,71.764706%,81.568627%);fill-opacity:1;" d="M 28.5 9.5 L 3.5 9.5 C 2.949219 9.5 2.5 9.050781 2.5 8.5 L 2.5 5.5 C 2.5 4.949219 2.949219 4.5 3.5 4.5 L 28.5 4.5 C 29.050781 4.5 29.5 4.949219 29.5 5.5 L 29.5 8.5 C 29.5 9.050781 29.050781 9.5 28.5 9.5 Z M 28.5 9.5 "/>
<path style=" stroke:none;fill-rule:nonzero;fill:rgb(100%,97.254902%,97.254902%);fill-opacity:1;" d="M 12 10.496094 L 12.617188 11.628906 L 13.75 12.246094 L 12.617188 12.867188 L 12 14 L 11.382812 12.867188 L 10.25 12.246094 L 11.382812 11.628906 Z M 12 10.496094 "/>
<path style=" stroke:none;fill-rule:nonzero;fill:rgb(100%,97.254902%,97.254902%);fill-opacity:1;" d="M 26.210938 12.082031 L 26.636719 12.863281 L 27.417969 13.289062 L 26.636719 13.71875 L 26.210938 14.5 L 25.78125 13.71875 L 25 13.289062 L 25.78125 12.863281 Z M 26.210938 12.082031 "/>
<path style=" stroke:none;fill-rule:nonzero;fill:rgb(100%,97.254902%,97.254902%);fill-opacity:1;" d="M 17.324219 24.351562 L 17.617188 24.882812 L 18.148438 25.175781 L 17.617188 25.46875 L 17.324219 26 L 17.03125 25.46875 L 16.5 25.175781 L 17.03125 24.882812 Z M 17.324219 24.351562 "/>
<path style=" stroke:none;fill-rule:nonzero;fill:rgb(55.294118%,42.352941%,62.352941%);fill-opacity:1;" d="M 27.5 9 L 25.5 9 C 25.222656 9 25 9.222656 25 9.5 C 25 9.777344 25.222656 10 25.5 10 L 27.5 10 C 27.777344 10 28 9.777344 28 9.5 C 28 9.222656 27.777344 9 27.5 9 Z M 27.5 9 "/>
<path style=" stroke:none;fill-rule:nonzero;fill:rgb(55.294118%,42.352941%,62.352941%);fill-opacity:1;" d="M 28.5 4 L 3.5 4 C 2.671875 4 2 4.671875 2 5.5 L 2 26.5 C 2 27.328125 2.671875 28 3.5 28 L 28.5 28 C 29.328125 28 30 27.328125 30 26.5 L 30 5.5 C 30 4.671875 29.328125 4 28.5 4 Z M 29 26.5 C 29 26.777344 28.777344 27 28.5 27 L 3.5 27 C 3.222656 27 3 26.777344 3 26.5 L 3 10 L 23.5 10 C 23.777344 10 24 9.777344 24 9.5 C 24 9.222656 23.777344 9 23.5 9 L 3 9 L 3 5.5 C 3 5.222656 3.222656 5 3.5 5 L 28.5 5 C 28.777344 5 29 5.222656 29 5.5 Z M 29 26.5 "/>
<path style=" stroke:none;fill-rule:nonzero;fill:rgb(55.294118%,42.352941%,62.352941%);fill-opacity:1;" d="M 10 6 C 9.722656 6 9.5 6.222656 9.5 6.5 L 9.5 7.5 C 9.5 7.777344 9.722656 8 10 8 C 10.277344 8 10.5 7.777344 10.5 7.5 L 10.5 6.5 C 10.5 6.222656 10.277344 6 10 6 Z M 10 6 "/>
<path style=" stroke:none;fill-rule:nonzero;fill:rgb(55.294118%,42.352941%,62.352941%);fill-opacity:1;" d="M 7.5 6 C 7.222656 6 7 6.222656 7 6.5 L 7 7.5 C 7 7.777344 7.222656 8 7.5 8 C 7.777344 8 8 7.777344 8 7.5 L 8 6.5 C 8 6.222656 7.777344 6 7.5 6 Z M 7.5 6 "/>
<path style=" stroke:none;fill-rule:nonzero;fill:rgb(55.294118%,42.352941%,62.352941%);fill-opacity:1;" d="M 5 6 C 4.722656 6 4.5 6.222656 4.5 6.5 L 4.5 7.5 C 4.5 7.777344 4.722656 8 5 8 C 5.277344 8 5.5 7.777344 5.5 7.5 L 5.5 6.5 C 5.5 6.222656 5.277344 6 5 6 Z M 5 6 "/>
<path style=" stroke:none;fill-rule:nonzero;fill:rgb(55.294118%,42.352941%,62.352941%);fill-opacity:1;" d="M 17.5 6 C 17.222656 6 17 6.222656 17 6.5 L 17 7.5 C 17 7.777344 17.222656 8 17.5 8 C 17.777344 8 18 7.777344 18 7.5 L 18 6.5 C 18 6.222656 17.777344 6 17.5 6 Z M 17.5 6 "/>
<path style=" stroke:none;fill-rule:nonzero;fill:rgb(55.294118%,42.352941%,62.352941%);fill-opacity:1;" d="M 20 6 C 19.722656 6 19.5 6.222656 19.5 6.5 L 19.5 7.5 C 19.5 7.777344 19.722656 8 20 8 C 20.277344 8 20.5 7.777344 20.5 7.5 L 20.5 6.5 C 20.5 6.222656 20.277344 6 20 6 Z M 20 6 "/>
<path style=" stroke:none;fill-rule:nonzero;fill:rgb(55.294118%,42.352941%,62.352941%);fill-opacity:1;" d="M 22.5 6 C 22.222656 6 22 6.222656 22 6.5 L 22 7.5 C 22 7.777344 22.222656 8 22.5 8 C 22.777344 8 23 7.777344 23 7.5 L 23 6.5 C 23 6.222656 22.777344 6 22.5 6 Z M 22.5 6 "/>
<path style=" stroke:none;fill-rule:nonzero;fill:rgb(55.294118%,42.352941%,62.352941%);fill-opacity:1;" d="M 25 8 C 25.277344 8 25.5 7.777344 25.5 7.5 L 25.5 6.5 C 25.5 6.222656 25.277344 6 25 6 C 24.722656 6 24.5 6.222656 24.5 6.5 L 24.5 7.5 C 24.5 7.777344 24.722656 8 25 8 Z M 25 8 "/>
<path style=" stroke:none;fill-rule:nonzero;fill:rgb(55.294118%,42.352941%,62.352941%);fill-opacity:1;" d="M 27.5 6 C 27.222656 6 27 6.222656 27 6.5 L 27 7.5 C 27 7.777344 27.222656 8 27.5 8 C 27.777344 8 28 7.777344 28 7.5 L 28 6.5 C 28 6.222656 27.777344 6 27.5 6 Z M 27.5 6 "/>
<path style=" stroke:none;fill-rule:nonzero;fill:rgb(55.294118%,42.352941%,62.352941%);fill-opacity:1;" d="M 12.5 6 C 12.222656 6 12 6.222656 12 6.5 L 12 7.5 C 12 7.777344 12.222656 8 12.5 8 C 12.777344 8 13 7.777344 13 7.5 L 13 6.5 C 13 6.222656 12.777344 6 12.5 6 Z M 12.5 6 "/>
<path style=" stroke:none;fill-rule:nonzero;fill:rgb(55.294118%,42.352941%,62.352941%);fill-opacity:1;" d="M 15 6 C 14.722656 6 14.5 6.222656 14.5 6.5 L 14.5 7.5 C 14.5 7.777344 14.722656 8 15 8 C 15.277344 8 15.5 7.777344 15.5 7.5 L 15.5 6.5 C 15.5 6.222656 15.277344 6 15 6 Z M 15 6 "/>
<path style=" stroke:none;fill-rule:nonzero;fill:rgb(55.294118%,42.352941%,62.352941%);fill-opacity:1;" d="M 24.5 14 C 24.222656 14 24 14.222656 24 14.5 L 24 18 L 21 18 L 21 14.5 C 21 14.222656 20.777344 14 20.5 14 C 20.222656 14 20 14.222656 20 14.5 L 20 22.5 C 20 22.777344 20.222656 23 20.5 23 C 20.777344 23 21 22.777344 21 22.5 L 21 19 L 24 19 L 24 22.5 C 24 22.777344 24.222656 23 24.5 23 C 24.777344 23 25 22.777344 25 22.5 L 25 14.5 C 25 14.222656 24.777344 14 24.5 14 Z M 24.5 14 "/>
<path style=" stroke:none;fill-rule:nonzero;fill:rgb(55.294118%,42.352941%,62.352941%);fill-opacity:1;" d="M 9 14 L 8 14 C 6.898438 14 6 14.898438 6 16 L 6 17 C 6 18.101562 6.898438 19 8 19 L 9 19 C 9.550781 19 10 19.449219 10 20 L 10 21 C 10 21.550781 9.550781 22 9 22 L 8 22 C 7.449219 22 7 21.550781 7 21 L 7 20.5 C 7 20.222656 6.777344 20 6.5 20 C 6.222656 20 6 20.222656 6 20.5 L 6 21 C 6 22.101562 6.898438 23 8 23 L 9 23 C 10.101562 23 11 22.101562 11 21 L 11 20 C 11 18.898438 10.101562 18 9 18 L 8 18 C 7.449219 18 7 17.550781 7 17 L 7 16 C 7 15.449219 7.449219 15 8 15 L 9 15 C 9.550781 15 10 15.449219 10 16 L 10 16.5 C 10 16.777344 10.222656 17 10.5 17 C 10.777344 17 11 16.777344 11 16.5 L 11 16 C 11 14.898438 10.101562 14 9 14 Z M 9 14 "/>
<path style=" stroke:none;fill-rule:nonzero;fill:rgb(55.294118%,42.352941%,62.352941%);fill-opacity:1;" d="M 16 14 L 15 14 C 13.898438 14 13 14.898438 13 16 L 13 17 C 13 18.101562 13.898438 19 15 19 L 16 19 C 16.550781 19 17 19.449219 17 20 L 17 21 C 17 21.550781 16.550781 22 16 22 L 15 22 C 14.449219 22 14 21.550781 14 21 L 14 20.5 C 14 20.222656 13.777344 20 13.5 20 C 13.222656 20 13 20.222656 13 20.5 L 13 21 C 13 22.101562 13.898438 23 15 23 L 16 23 C 17.101562 23 18 22.101562 18 21 L 18 20 C 18 18.898438 17.101562 18 16 18 L 15 18 C 14.449219 18 14 17.550781 14 17 L 14 16 C 14 15.449219 14.449219 15 15 15 L 16 15 C 16.550781 15 17 15.449219 17 16 L 17 16.5 C 17 16.777344 17.222656 17 17.5 17 C 17.777344 17 18 16.777344 18 16.5 L 18 16 C 18 14.898438 17.101562 14 16 14 Z M 16 14 "/>
</g>
</svg>
